<?xml version="1.0" standalone="no"?>
<!DOCTYPE svg PUBLIC "-//W3C//DTD SVG 20010904//EN"
 "http://www.w3.org/TR/2001/REC-SVG-20010904/DTD/svg10.dtd">
<svg version="1.0" xmlns="http://www.w3.org/2000/svg"
 width="434.000000pt" height="512.000000pt" viewBox="0 0 434.000000 512.000000"
 preserveAspectRatio="xMidYMid meet">

<g transform="translate(0.000000,512.000000) scale(0.100000,-0.100000)"
fill="#000000" stroke="none">
<path d="M2120 5075 c0 -30 -3 -35 -23 -35 -26 0 -57 -28 -57 -52 0 -8 9 -27
20 -41 20 -25 26 -58 14 -70 -10 -10 -44 16 -44 34 0 27 -13 30 -37 7 -12 -12
-24 -20 -25 -17 -2 2 -8 13 -14 24 -6 11 -27 24 -48 29 -31 8 -41 6 -66 -12
-19 -14 -44 -22 -70 -22 -35 0 -40 -3 -40 -24 0 -21 5 -24 53 -29 41 -4 57 -2
79 14 36 25 38 24 38 -12 0 -17 5 -40 11 -51 8 -15 8 -19 0 -14 -12 8 -51 -2
-51 -12 0 -13 65 -7 73 6 14 21 63 13 108 -19 62 -44 62 -44 26 -46 -18 -1
-46 -4 -63 -8 -26 -6 -34 -3 -53 20 -11 15 -21 24 -21 19 0 -4 10 -18 22 -31
25 -27 13 -49 -22 -38 -15 5 -18 10 -11 19 8 9 6 17 -7 28 -18 17 -54 20 -50
6 2 -5 7 -9 12 -8 5 1 17 -13 28 -30 17 -29 23 -32 52 -27 28 4 39 0 60 -22
31 -32 34 -66 6 -81 -11 -6 -20 -15 -20 -21 0 -5 10 -1 22 11 23 21 38 26 38
11 0 -15 -51 -43 -71 -38 -21 6 -27 -17 -7 -29 7 -4 8 -3 4 4 -4 7 -3 12 3 12
5 0 11 -5 13 -12 5 -14 77 59 79 81 5 46 2 56 -24 84 -21 23 -25 32 -15 38 25
16 48 9 63 -21 19 -38 4 -39 -25 -2 l-22 27 21 -39 c30 -53 21 -115 -23 -158
-22 -23 -25 -30 -11 -24 32 13 50 12 50 -3 0 -18 -45 -36 -46 -18 0 7 -4 2 -9
-11 -14 -33 -40 -39 -61 -14 -9 12 -22 22 -27 22 -5 0 -15 7 -23 16 -11 13
-10 21 6 50 l18 34 -84 88 c-46 48 -87 89 -91 90 -11 5 -10 -46 1 -52 5 -4 7
4 4 16 -4 18 2 14 28 -17 19 -22 54 -59 79 -82 40 -38 44 -44 33 -62 -27 -43
-10 -87 40 -104 17 -6 17 -8 3 -23 -15 -14 -22 -56 -16 -94 3 -22 6 -23 28
-11 41 22 72 -20 37 -49 -12 -10 -18 -10 -29 -1 -17 14 -29 0 -20 -23 5 -12 0
-16 -18 -16 -57 0 -76 -68 -33 -118 18 -22 21 -32 13 -40 -19 -19 -63 -14 -83
8 -10 11 -23 20 -30 20 -11 0 -35 41 -35 61 0 5 21 32 47 60 36 38 47 58 49
87 1 20 0 28 -3 17 -7 -29 -23 -43 -23 -20 0 18 0 18 -16 -1 -15 -18 -15 -18
-10 11 l6 30 -15 -25 c-11 -19 -14 -21 -15 -8 0 13 -11 7 -39 -22 -22 -22 -51
-44 -66 -50 -15 -6 -23 -15 -19 -21 10 -16 -72 -95 -151 -144 -95 -59 -181
-87 -287 -93 -100 -5 -157 6 -239 48 l-57 29 -140 -151 -140 -151 23 -36 c67
-107 132 -277 169 -441 84 -381 34 -779 -146 -1148 l-50 -103 51 -102 c100
-202 221 -367 388 -528 126 -123 275 -233 535 -397 306 -193 427 -292 490
-402 l22 -37 47 66 c75 107 186 199 421 346 326 206 460 308 619 471 154 159
265 317 358 512 l34 71 -52 112 c-236 502 -241 1037 -15 1507 47 97 53 116 42
130 -7 10 -67 76 -132 147 -66 72 -121 132 -122 134 -2 1 -18 -9 -36 -23 -144
-109 -367 -87 -554 54 -74 55 -217 206 -232 243 l-12 32 5 -35 c4 -33 4 -34
-10 -16 -15 20 -15 20 -15 0 -1 -16 -3 -16 -15 6 l-15 25 6 -30 c5 -29 5 -29
-12 -10 -16 20 -16 20 -11 -3 4 -19 3 -21 -8 -12 -8 6 -16 19 -18 28 -2 9 -3
4 -1 -13 3 -28 3 -29 -11 -11 -13 17 -15 18 -15 3 0 -9 0 -19 0 -22 0 -3 3 -5
6 -4 3 1 19 -12 35 -27 31 -30 38 -61 15 -70 -20 -8 -39 -59 -31 -83 8 -27
-15 -37 -45 -21 l-22 12 26 27 c47 49 25 121 -37 121 -13 0 -17 5 -13 16 9 22
-3 37 -19 24 -19 -15 -45 -1 -45 25 0 28 24 39 52 24 22 -12 25 -11 28 11 10
66 -13 113 -49 103 -22 -6 -44 27 -35 51 4 9 0 18 -9 22 -24 9 -44 45 -52 92
-5 30 -3 42 5 42 7 0 10 -7 6 -15 -3 -8 -1 -26 3 -38 12 -31 74 -93 79 -78 2
6 8 11 13 11 6 0 8 -4 4 -9 -3 -5 -2 -12 3 -15 4 -2 9 7 10 20 1 16 -2 23 -9
19 -14 -9 -66 13 -73 31 -8 20 7 17 32 -6 11 -11 23 -16 26 -11 3 4 -6 13 -19
19 -32 15 -32 37 0 78 22 29 30 33 57 27 27 -5 35 -1 69 37 22 24 39 46 39 50
0 19 -29 43 -47 38 -19 -5 -19 -4 -4 41 9 25 17 48 18 49 1 2 11 -6 22 -17 22
-22 51 -28 51 -11 0 6 -9 10 -21 10 -13 0 -23 8 -26 21 -4 12 -11 18 -20 15
-8 -3 -19 -6 -23 -6 -5 0 -10 -19 -12 -42 -2 -32 -8 -44 -21 -46 -16 -3 -18 0
-11 20 5 12 8 39 9 58 0 35 1 35 47 38 44 3 48 1 54 -23 5 -19 10 -23 17 -16
16 16 64 13 71 -4 4 -11 -3 -15 -27 -16 -31 -2 -31 -2 -4 -6 41 -6 56 2 50 26
-4 17 -13 21 -44 21 -26 0 -46 7 -60 21 -14 14 -28 19 -42 15 -12 -3 -33 -6
-45 -6 -15 0 -26 -7 -29 -20 -6 -23 -38 -27 -47 -5 -8 22 -25 18 -31 -8 -4
-13 -15 -28 -25 -35 -29 -18 -37 20 -11 57 36 50 18 101 -35 101 -21 0 -24 5
-24 35 0 31 -3 35 -25 35 -22 0 -25 -4 -25 -35z m37 -12 c-2 -35 0 -38 28 -38
59 0 74 -37 32 -79 -13 -13 -21 -28 -19 -34 2 -8 -13 -12 -47 -12 -28 0 -51 5
-51 10 0 6 15 10 33 10 27 0 33 4 34 22 2 17 0 19 -7 8 -5 -8 -22 -16 -38 -17
-23 -3 -35 3 -51 23 -25 32 -26 38 -5 58 22 22 28 20 41 -11 l12 -28 -6 28
c-4 19 -2 27 7 25 8 -2 14 10 15 32 3 41 2 40 14 40 5 0 9 -17 8 -37z m-213
-186 c1 -39 -3 -57 -11 -57 -15 0 -27 43 -20 69 6 26 -40 36 -48 11 -4 -14
-18 -18 -65 -19 -51 -1 -59 1 -53 15 5 12 15 15 44 11 22 -3 39 -1 39 3 0 23
30 36 71 31 l42 -6 1 -58z m74 28 c-4 -17 -1 -25 9 -25 23 0 28 -31 8 -46 -10
-8 -15 -17 -12 -21 9 -8 55 34 63 59 3 10 14 18 24 18 19 0 19 -1 0 -34 -11
-18 -29 -41 -40 -51 -18 -16 -21 -16 -59 1 -58 27 -79 84 -31 84 10 0 22 9 25
20 9 28 18 25 13 -5z m298 -15 c17 0 24 -6 24 -19 0 -11 -5 -23 -10 -26 -6 -4
-8 -10 -5 -15 2 -4 -6 -10 -20 -12 -17 -4 -31 2 -46 18 -22 23 -19 44 7 44 8
0 15 11 15 28 2 23 2 24 6 5 3 -16 11 -23 29 -23z m-101 -29 c8 -17 24 -36 36
-44 13 -10 17 -17 9 -22 -18 -11 -36 1 -68 49 -28 42 -29 46 -12 46 11 0 26
-12 35 -29z m-25 -38 l32 -47 -26 -18 c-14 -11 -23 -25 -20 -33 5 -12 -21 -75
-31 -75 -8 0 -35 72 -30 80 3 5 -7 18 -21 29 l-27 21 20 23 c10 12 27 35 37
50 20 33 25 31 66 -30z m170 -35 c5 -13 9 -17 9 -10 1 19 56 11 56 -8 0 -8 -7
-14 -16 -12 -8 1 -26 -10 -40 -24 -13 -14 -19 -24 -14 -22 6 2 12 -1 15 -7 7
-15 -30 -19 -44 -5 -8 9 -8 14 2 17 7 3 17 14 23 26 10 19 7 18 -17 -5 -28
-26 -31 -27 -58 -13 -16 8 -40 15 -55 14 -21 0 -23 -2 -7 -8 17 -7 17 -9 -7
-37 -20 -22 -26 -25 -27 -12 0 9 5 20 11 23 6 4 8 13 5 21 -6 16 99 84 132 84
14 0 26 -8 32 -22z m30 -58 c0 -5 -5 -10 -11 -10 -5 0 -7 5 -4 10 3 6 8 10 11
10 2 0 4 -4 4 -10z m-140 -30 c-6 -10 -15 -22 -21 -26 -8 -5 -7 -9 1 -14 9 -5
10 -17 5 -36 -8 -29 -8 -29 -15 11 -8 42 12 101 30 90 7 -4 6 -13 0 -25z
m-212 -15 c13 -29 6 -32 -20 -8 -21 19 -23 33 -5 33 8 0 19 -11 25 -25z m241
-1 c-13 -14 -25 -20 -27 -14 -5 15 17 40 36 40 12 0 10 -6 -9 -26z m-149 -43
c0 -11 -4 -23 -10 -26 -6 -4 -10 5 -10 19 0 14 5 26 10 26 6 0 10 -9 10 -19z
m45 -17 c-4 -24 -3 -34 4 -29 7 4 11 -3 11 -17 0 -13 5 -29 12 -36 7 -7 8 -12
4 -12 -4 0 -16 10 -27 23 -15 18 -18 19 -19 6 0 -9 7 -19 15 -23 20 -7 19 -22
-5 -46 -16 -16 -25 -18 -39 -11 -26 14 -33 38 -16 55 8 8 15 23 15 33 0 14 -4
12 -18 -9 -9 -16 -21 -28 -26 -28 -6 0 -5 5 2 12 7 7 12 22 12 34 0 13 8 24
20 27 16 4 20 0 21 -21 1 -21 3 -18 10 13 12 52 17 65 25 65 3 0 3 -16 -1 -36z
m-106 -1 c0 -25 -1 -26 -9 -8 -12 27 -12 35 0 35 6 0 10 -12 9 -27z m161 -113
c24 -13 15 -40 -11 -33 -23 6 -33 19 -24 33 8 12 12 12 35 0z m20 -158 l0
-107 33 0 c27 0 32 -4 33 -25 0 -14 4 -41 9 -60 l8 -34 15 38 c14 36 14 40 -3
52 -22 16 -3 19 26 4 27 -15 25 -61 -6 -90 -14 -13 -28 -20 -32 -17 -3 4 -13
1 -21 -6 -13 -10 -15 -9 -10 11 4 12 2 22 -3 22 -5 0 -9 -8 -9 -17 0 -10 -11
-31 -25 -48 -18 -22 -23 -25 -19 -10 5 17 3 16 -15 -5 -22 -27 -27 -21 -10 13
8 15 3 13 -16 -8 -26 -30 -26 -30 -21 -5 5 22 4 22 -8 -4 -9 -20 -15 -25 -19
-15 -3 8 -6 1 -6 -15 -1 -22 2 -27 10 -19 8 8 18 7 37 -3 35 -18 71 -18 78 1
7 18 24 20 24 3 0 -7 14 -21 30 -30 21 -12 30 -25 30 -42 0 -27 -34 -54 -45
-36 -3 5 -1 10 4 10 6 0 11 10 11 22 0 17 -3 19 -12 10 -16 -16 -39 -15 -36 0
2 7 -13 15 -37 18 -22 3 -50 12 -62 18 -22 12 -23 11 -23 -23 0 -45 22 -100
47 -114 17 -10 17 -11 -5 -17 -21 -6 -21 -7 -5 -20 17 -12 16 -13 -5 -14 -12
0 -25 -7 -28 -15 -4 -8 -12 -15 -20 -15 -8 0 -14 7 -14 15 0 10 -10 15 -27 15
-25 0 -26 1 -8 13 17 13 17 14 -5 20 l-23 6 27 23 c17 15 29 37 33 63 l6 40
-34 -42 c-19 -23 -40 -40 -48 -37 -8 3 -11 -1 -7 -11 4 -10 -1 -15 -14 -15
-45 0 -6 67 49 85 31 9 61 54 61 89 0 22 -3 27 -9 17 -6 -10 -11 -5 -17 20 -4
19 -7 43 -6 54 1 11 -1 14 -4 7 -3 -6 -10 -10 -14 -7 -5 3 -3 -10 5 -29 21
-50 18 -55 -11 -21 -17 20 -22 23 -15 8 17 -34 13 -40 -9 -13 -16 20 -19 21
-13 5 6 -18 5 -18 -10 -7 -9 8 -22 29 -29 48 -6 19 -15 34 -20 34 -4 0 -4 -8
-1 -17 5 -12 2 -15 -10 -10 -10 4 -17 2 -17 -5 0 -7 -13 1 -30 17 -16 16 -30
38 -30 49 0 24 28 56 48 56 13 0 13 -3 -2 -18 -15 -17 -15 -22 -2 -53 9 -20
15 -27 16 -16 0 10 4 16 9 13 5 -4 7 4 4 16 -5 23 -4 22 16 -2 11 -14 21 -21
21 -16 0 6 -9 20 -21 32 -30 32 -18 68 21 62 27 -4 29 -2 32 31 2 20 1 58 -1
84 -3 46 -4 48 -18 27 -14 -20 -16 -20 -34 -4 -21 19 -27 50 -6 37 18 -11 38
-13 31 -2 -3 5 2 9 10 9 9 0 16 7 16 15 0 12 18 15 105 15 l105 0 0 -108z m70
64 c0 -6 -7 -20 -15 -30 -15 -20 -15 -20 -30 0 -22 29 -18 41 15 41 17 0 30
-5 30 -11z m-566 -194 c-7 -25 -22 -28 -50 -8 -21 16 -16 26 15 29 11 1 21 6
21 11 0 6 3 7 10 0 5 -5 7 -19 4 -32z m739 -27 c-3 -9 1 -15 8 -15 20 0 49
-31 49 -53 0 -13 -5 -17 -15 -13 -8 3 -15 1 -15 -3 0 -5 6 -11 12 -13 9 -3 8
-12 -5 -32 -13 -19 -24 -25 -37 -21 -10 3 -21 1 -25 -5 -15 -24 -162 7 -172
36 -7 21 29 24 55 5 43 -30 68 -34 77 -14 5 10 7 21 7 26 -1 4 3 7 8 7 6 0 10
7 10 15 0 8 7 15 15 15 9 0 15 9 14 23 -1 16 -2 18 -6 5 -2 -10 -11 -18 -19
-18 -8 0 -14 -7 -14 -15 0 -8 -4 -15 -10 -15 -12 0 -12 2 -1 33 6 14 19 28 31
32 12 4 19 13 16 20 -5 15 3 27 15 19 4 -2 6 -11 2 -19z m-541 -7 c-7 -7 -12
-8 -12 -2 0 14 12 26 19 19 2 -3 -1 -11 -7 -17z m398 1 c0 -6 -4 -7 -10 -4 -5
3 -10 11 -10 16 0 6 5 7 10 4 6 -3 10 -11 10 -16z m-582 -24 c7 -14 12 -32 12
-40 0 -8 5 -15 10 -15 6 0 10 -8 10 -17 0 -15 2 -16 10 -3 8 13 12 12 25 -7
21 -30 80 -31 110 -3 13 12 29 18 38 14 25 -9 21 -22 -15 -44 -39 -25 -148
-25 -156 -1 -3 9 0 11 8 6 9 -5 11 -4 6 3 -4 7 -17 12 -29 12 -18 0 -19 -2 -7
-10 13 -8 13 -10 -2 -10 -12 0 -16 7 -14 28 2 15 -5 44 -15 64 -21 42 -23 48
-11 48 5 0 14 -11 20 -25z m-12 -76 c1 -65 46 -126 83 -114 16 5 20 12 16 26
-6 17 -1 19 35 19 22 0 59 9 81 21 37 19 42 19 58 5 10 -9 30 -16 44 -16 37 0
34 -17 -5 -25 -23 -6 -35 -3 -43 9 -7 9 -15 16 -19 16 -18 0 -86 -76 -86 -96
0 -29 28 -57 51 -51 12 3 19 -2 23 -18 4 -16 15 -25 33 -27 19 -2 32 -12 41
-31 8 -16 21 -31 30 -35 10 -3 23 -12 30 -19 13 -12 42 -8 42 7 0 4 8 10 19
13 10 2 25 17 32 33 10 20 24 31 44 34 21 4 31 12 33 27 2 14 8 20 17 17 7 -3
23 -1 34 6 29 15 28 64 -1 90 -13 12 -30 27 -39 35 -20 19 -35 19 -43 0 -7
-19 -37 -19 -62 0 -18 14 -18 14 10 15 16 0 37 6 45 14 14 12 21 12 56 -1 55
-22 124 -27 174 -13 34 9 45 18 59 48 9 20 17 38 18 40 1 1 41 -27 90 -64 96
-73 217 -134 303 -154 32 -8 90 -11 146 -8 76 4 105 11 157 35 l63 30 84 -94
c46 -52 84 -99 84 -106 1 -7 -20 -55 -45 -107 -212 -434 -207 -1076 12 -1534
l40 -86 -29 -59 c-45 -88 -159 -254 -250 -363 -159 -190 -363 -356 -669 -543
-262 -160 -367 -243 -387 -304 -8 -26 -22 -27 -30 -1 -13 40 -146 147 -306
244 -322 196 -457 294 -618 450 -161 156 -294 328 -398 514 l-35 63 45 97
c222 477 222 1111 0 1544 l-45 88 87 95 c48 52 90 95 93 95 2 0 37 -12 76 -27
61 -23 87 -27 181 -27 98 0 120 3 197 31 95 33 210 100 279 162 24 22 49 39
54 37 6 -2 10 -18 11 -37z m49 -59 c-3 -5 -10 -10 -16 -10 -5 0 -9 5 -9 10 0
6 7 10 16 10 8 0 12 -4 9 -10z m29 -26 c9 -24 0 -29 -19 -11 -19 19 -19 27 -1
27 8 0 17 -7 20 -16z m212 -14 c14 0 38 7 54 15 27 14 30 14 30 1 0 -20 -51
-46 -90 -46 -20 0 -30 -5 -30 -15 0 -8 -7 -15 -15 -15 -8 0 -15 5 -15 12 0 9
-3 9 -12 0 -8 -8 -8 -15 1 -26 16 -19 -2 -29 -24 -12 -27 20 -12 64 28 81 18
8 28 14 24 15 -5 0 -5 5 -1 11 5 8 10 6 16 -5 5 -9 20 -16 34 -16z m178 -60
c17 0 67 -51 63 -63 -2 -7 -14 -13 -28 -14 -13 -1 -18 0 -11 3 16 8 16 28 -1
21 -7 -3 -19 4 -25 14 -7 10 -18 19 -24 19 -9 0 -9 -3 0 -12 7 -7 12 -18 12
-26 0 -12 -3 -12 -16 -1 -9 8 -13 21 -10 35 4 13 2 26 -4 29 -5 3 -10 13 -10
21 0 11 5 10 22 -6 12 -11 27 -20 32 -20z m-144 16 c0 -8 -51 -13 -56 -5 -3 5
9 9 25 9 17 0 31 -2 31 -4z m190 -6 c0 -6 -11 -8 -27 -4 -40 10 -41 14 -5 14
18 0 32 -5 32 -10z m-160 -49 c0 -5 -7 -14 -15 -21 -12 -10 -15 -10 -15 2 0 8
3 18 7 21 9 10 23 9 23 -2z"/>
<path d="M2176 4995 c-9 -26 -7 -32 5 -12 6 10 9 21 6 23 -2 3 -7 -2 -11 -11z"/>
<path d="M2315 4790 c4 -6 11 -8 16 -5 14 9 11 15 -7 15 -8 0 -12 -5 -9 -10z"/>
<path d="M2149 4401 c9 -6 10 -10 2 -12 -7 -3 -13 -16 -15 -31 -1 -15 -8 -34
-16 -42 -10 -13 -10 -16 4 -16 9 0 16 6 16 13 0 7 9 18 19 24 13 8 18 19 14
33 -3 12 0 20 6 20 7 0 9 5 6 10 -3 6 -16 10 -28 10 -16 0 -18 -3 -8 -9z"/>
<path d="M2066 4338 c7 -11 34 -10 34 1 0 6 -9 9 -19 8 -11 0 -17 -5 -15 -9z"/>
<path d="M2150 4300 c0 -5 7 -10 16 -10 8 0 12 5 9 10 -3 6 -10 10 -16 10 -5
0 -9 -4 -9 -10z"/>
<path d="M2086 4274 c-7 -19 2 -37 15 -29 5 4 9 3 9 -2 0 -4 14 -9 30 -10 18
-1 28 2 25 7 -4 6 2 10 12 11 14 0 12 3 -6 10 -17 7 -27 6 -31 -2 -11 -16 -50
-1 -43 17 3 7 3 14 0 14 -3 0 -8 -7 -11 -16z"/>
<path d="M2040 4206 c0 -15 -4 -25 -10 -21 -17 11 -11 -42 7 -56 13 -11 15
-11 9 -1 -6 10 -3 13 10 12 34 -4 42 0 47 20 5 21 37 18 37 -3 0 -5 9 -2 20 8
20 18 21 18 27 -3 5 -22 13 -26 46 -22 16 1 17 -2 7 -22 -11 -22 -10 -22 9 2
11 14 21 32 21 41 0 25 -27 72 -35 60 -3 -6 -21 -11 -39 -11 -17 0 -37 -5 -43
-11 -8 -8 -13 -8 -17 0 -4 6 -22 11 -40 11 -17 0 -37 5 -44 12 -9 9 -12 6 -12
-16z m42 -31 c4 -21 1 -25 -17 -25 -31 0 -38 11 -18 32 22 24 30 23 35 -7z
m153 15 c4 -6 10 -8 14 -6 4 3 8 -4 8 -15 1 -14 -5 -19 -23 -19 -19 0 -24 5
-24 25 0 25 14 33 25 15z"/>
<path d="M2270 4226 c0 -2 8 -10 18 -17 15 -13 16 -12 3 4 -13 16 -21 21 -21
13z"/>
<path d="M2292 4178 c-14 -14 -16 -28 -3 -28 9 0 24 30 18 36 -2 2 -9 -2 -15
-8z"/>
<path d="M2181 4118 c-1 -11 -6 -15 -16 -12 -17 7 -19 -4 -6 -24 7 -11 9 -10
15 3 3 9 10 14 15 11 5 -3 12 1 15 10 3 8 2 13 -3 9 -5 -3 -12 1 -14 7 -3 8
-6 6 -6 -4z"/>
<path d="M2115 4100 c-3 -5 -5 -10 -3 -11 29 -7 36 -5 31 7 -6 16 -19 18 -28
4z"/>
<path d="M2455 4070 c-15 -6 -11 -8 17 -7 21 1 38 5 38 10 0 9 -29 8 -55 -3z"/>
<path d="M1283 3703 l-33 -4 0 -136 0 -136 23 34 c33 50 56 48 122 -10 32 -28
62 -51 67 -51 5 0 0 -12 -12 -27 -11 -16 -35 -48 -53 -73 -44 -60 -73 -64
-116 -15 l-31 36 0 -138 0 -138 19 31 c39 65 85 77 177 49 83 -25 140 -17 171
24 6 9 17 36 23 60 l11 44 21 -34 c22 -36 39 -50 77 -61 27 -8 75 13 85 37 5
14 10 11 30 -12 l25 -28 -77 -12 c-45 -7 -81 -19 -88 -27 -7 -11 -14 -12 -21
-5 -7 7 -32 5 -80 -7 l-70 -17 -22 -68 c-12 -38 -23 -69 -25 -69 -2 0 -18 22
-36 49 l-34 49 -55 -24 c-31 -14 -73 -36 -93 -50 l-38 -24 0 -465 0 -464 33
-25 c32 -25 158 -86 205 -100 20 -7 22 -4 22 36 l-1 43 -89 43 -90 42 0 160
c0 88 2 160 5 160 3 0 26 -16 52 -36 339 -259 1098 -268 1478 -19 37 25 70 45
71 45 2 0 4 -70 4 -156 l0 -155 -72 -33 c-40 -18 -81 -36 -90 -39 -14 -5 -18
-18 -18 -52 0 -26 5 -45 11 -45 22 0 165 62 212 92 l47 30 0 474 0 475 -72 34
c-72 35 -98 42 -98 28 0 -5 -11 -21 -25 -38 l-25 -30 2 49 c2 49 2 50 -37 68
-50 22 -69 22 -86 2 -12 -15 -14 -14 -19 7 -5 21 -17 26 -110 46 -58 12 -112
24 -120 25 -11 3 -10 7 6 16 16 9 35 8 82 -1 33 -7 64 -16 68 -20 13 -12 21
-8 27 15 6 21 7 21 26 4 10 -9 42 -23 71 -31 29 -8 61 -21 71 -31 18 -16 19
-16 19 16 0 29 2 32 23 25 74 -23 85 -18 106 47 23 70 54 56 71 -32 6 -30 12
-56 15 -58 3 -3 5 62 5 144 l0 149 -51 -4 c-42 -2 -50 0 -43 10 5 8 11 46 14
84 4 62 7 70 27 73 13 2 27 -5 37 -20 15 -21 16 -17 16 75 l0 97 -29 0 c-15 0
-45 -11 -65 -25 -41 -28 -62 -25 -46 5 10 18 8 19 -22 14 -18 -3 -50 -13 -71
-22 -33 -13 -43 -14 -70 -3 -59 24 -80 24 -119 -3 l-37 -25 -23 30 -24 29
-136 -7 -137 -6 6 -111 c3 -61 7 -112 7 -113 1 -1 19 12 40 29 32 26 41 29 62
20 13 -7 24 -15 24 -19 -1 -5 -27 -28 -59 -53 -32 -25 -57 -47 -56 -48 2 -2
29 15 60 39 30 23 58 39 62 35 3 -3 4 -8 2 -9 -2 -2 -30 -23 -61 -47 -56 -41
-58 -44 -58 -89 0 -43 3 -48 45 -76 45 -30 53 -47 35 -75 -8 -13 -13 -13 -42
3 l-33 18 24 -21 c26 -23 21 -41 -5 -19 -15 12 -16 12 -10 -7 7 -23 -1 -54
-14 -54 -10 0 -27 145 -45 385 -8 110 -15 203 -15 208 0 4 -34 7 -75 7 -67 0
-75 -2 -75 -19 0 -105 -44 -568 -55 -579 -8 -9 -17 28 -12 49 5 17 3 18 -9 8
-8 -6 -17 -9 -21 -6 -3 4 5 15 18 26 29 25 18 27 -17 5 -27 -19 -29 -18 -38
13 -6 18 0 27 32 48 52 35 60 61 20 69 -41 8 -85 42 -105 79 -16 31 -15 31 31
-11 35 -32 54 -42 73 -40 43 5 37 24 -21 68 -31 22 -56 45 -56 50 0 16 9 12
56 -26 25 -20 47 -34 50 -32 3 3 -18 22 -46 43 -55 41 -59 49 -30 65 17 9 28
7 54 -9 l33 -21 6 68 c4 37 7 88 7 115 l0 47 -122 0 -123 0 -32 -37 -31 -38
-34 32 c-47 45 -72 48 -163 19 -114 -37 -205 -32 -205 9 0 8 -3 14 -7 13 -5 0
-23 -3 -40 -5z m1179 -153 c86 -118 87 -120 65 -135 -12 -8 -24 -11 -28 -7
-10 11 -174 235 -183 250 -5 9 2 12 26 12 32 0 40 -8 120 -120z m36 9 c40 -55
72 -105 70 -111 -3 -9 -168 203 -168 217 0 18 36 -20 98 -106z m-525 78 c-10
-12 -58 -71 -106 -130 l-89 -107 -46 33 c-25 17 -50 35 -56 39 -5 3 23 47 63
97 l73 91 90 0 89 0 -18 -23z m225 -199 c20 -369 59 -554 145 -680 66 -96 103
-116 333 -178 109 -29 214 -57 232 -62 29 -8 32 -12 32 -48 l0 -40 -289 0
-289 0 -83 -102 c-46 -57 -95 -118 -111 -136 l-28 -32 -101 135 -101 135 -305
0 -304 0 3 37 3 38 205 57 c113 31 221 62 240 67 102 30 189 130 233 268 47
144 62 243 77 508 15 266 13 255 59 255 l37 0 12 -222z m371 137 c58 -81 60
-85 40 -96 -12 -6 -24 -7 -28 -2 -4 4 -38 47 -74 96 l-67 87 34 0 c31 0 39 -7
95 -85z m128 64 c-8 -31 16 -33 72 -5 28 14 57 26 66 26 14 0 14 -3 -1 -25
-23 -35 -13 -40 32 -16 43 23 146 30 110 8 -48 -30 -56 -45 -56 -112 0 -97
-22 -132 -76 -119 -17 4 -24 13 -24 29 0 13 5 27 10 30 6 3 17 21 26 38 l15
32 -26 -32 c-15 -19 -36 -33 -48 -33 -19 0 -17 3 13 31 32 28 32 29 5 11 -22
-14 -46 -19 -88 -18 -54 1 -58 3 -82 38 -45 66 -48 86 -20 114 31 31 80 34 72
3z m-1033 -3 c42 -18 52 -34 33 -53 -14 -14 -18 -14 -38 1 -13 9 -33 16 -44
15 -13 0 -7 -5 15 -12 l35 -10 -50 -8 c-53 -8 -141 -37 -114 -38 9 -1 38 6 65
14 58 18 94 19 94 4 0 -6 -10 -24 -21 -41 -17 -23 -19 -32 -9 -38 22 -14 -9
-22 -83 -22 -81 0 -109 8 -155 47 -33 27 -53 59 -67 103 -6 21 -5 23 13 13 32
-17 80 -13 162 14 87 28 118 30 164 11z m1109 -188 c22 -11 22 -12 -7 -23
l-29 -12 39 -7 c48 -10 90 -31 97 -50 5 -12 0 -14 -26 -10 -30 5 -31 5 -13
-10 25 -20 25 -20 83 3 26 10 53 16 59 14 13 -4 -37 -89 -79 -135 -32 -35 -58
-35 -116 -1 l-46 27 28 -33 c27 -33 39 -83 15 -63 -7 5 -28 13 -46 17 -42 9
-93 53 -127 110 -33 57 -40 58 -15 3 19 -43 26 -89 14 -101 -4 -3 -19 0 -35 8
-15 8 -38 15 -51 15 -35 0 -63 24 -97 82 -22 38 -31 47 -31 32 0 -12 7 -27 16
-34 23 -20 35 -47 28 -64 -5 -13 -17 -8 -64 24 -32 22 -61 44 -64 49 -13 20
15 62 50 77 51 21 96 5 133 -49 16 -23 42 -53 57 -67 l28 -25 -17 25 c-9 14
-25 35 -34 48 -24 34 -8 76 31 80 35 4 56 -14 112 -98 24 -36 44 -58 44 -49 0
20 -51 97 -84 128 -26 25 -34 51 -16 51 6 0 9 5 8 12 -7 31 109 51 155 26z
m-1134 -37 c10 -6 6 -13 -18 -27 -17 -10 -43 -36 -58 -56 -14 -21 -28 -36 -31
-33 -9 9 52 89 78 102 15 8 19 13 9 13 -8 0 -27 -12 -41 -27 -30 -33 -88 -123
-67 -106 8 6 17 11 21 10 4 -1 24 18 44 42 41 48 89 73 122 64 20 -5 20 -7
-11 -27 -19 -13 -46 -49 -68 -89 -52 -99 -78 -122 -137 -121 -26 1 -74 12
-106 24 l-60 23 34 16 c19 9 61 49 94 90 33 40 73 82 90 92 33 20 82 25 105
10z m250 -75 c28 -21 61 -36 77 -36 l29 -1 -38 -32 c-20 -18 -37 -40 -37 -49
0 -44 -51 -10 -76 50 -21 51 -43 72 -73 71 -24 0 -23 -1 8 -12 44 -15 52 -35
12 -29 -16 2 -31 -1 -35 -6 -4 -6 2 -8 14 -5 47 12 69 -53 28 -81 -46 -33
-100 -15 -118 38 -20 60 12 117 76 135 39 11 76 -1 133 -43z m599 42 c7 -7 12
-19 12 -27 0 -13 -2 -13 -12 1 -7 8 -22 20 -33 26 -20 11 -20 11 1 12 11 0 25
-5 32 -12z m-540 -305 c-3 -25 -8 -28 -63 -38 l-60 -10 4 -116 c2 -64 -1 -119
-5 -121 -5 -3 -26 -8 -46 -12 l-38 -7 0 155 0 155 48 6 c26 3 54 8 62 9 8 2
34 4 58 5 42 1 43 0 40 -26z m522 17 c36 -6 89 -15 118 -21 51 -10 52 -11 52
-46 0 -38 4 -37 -87 -16 -23 5 -23 5 -23 -116 0 -116 -1 -121 -21 -121 -11 0
-29 5 -40 10 -17 10 -19 22 -19 130 0 120 0 120 -24 120 -13 0 -38 3 -55 6
-26 6 -31 11 -31 35 0 26 3 29 33 29 17 0 61 -5 97 -10z m-800 -102 c0 -40 3
-110 7 -155 6 -80 5 -83 -18 -91 -73 -28 -68 -33 -71 70 l-3 93 -29 -85 c-47
-136 -42 -134 -92 -54 l-44 69 0 -101 0 -100 -45 -32 -45 -32 0 180 0 180 33
20 c49 30 63 25 103 -35 20 -30 40 -53 44 -50 3 2 19 37 35 77 15 40 32 78 37
83 8 9 63 32 81 34 4 1 7 -32 7 -71z m1084 32 c24 -9 26 -15 26 -64 0 -58 16
-86 50 -86 24 0 40 29 40 69 0 36 1 36 40 16 l29 -15 3 -139 c2 -76 2 -145 0
-154 -6 -32 -37 -27 -134 19 l-98 47 0 39 c0 44 2 45 40 18 38 -27 92 -49 108
-43 6 3 12 15 12 28 0 21 -3 23 -40 18 -47 -7 -81 12 -110 60 -16 25 -20 50
-20 115 0 88 3 92 54 72z"/>
<path d="M2868 3566 l-27 -34 24 12 c13 6 26 20 29 31 8 29 3 27 -26 -9z"/>
<path d="M1530 3570 c-8 -5 -10 -10 -5 -10 6 0 17 5 25 10 8 5 11 10 5 10 -5
0 -17 -5 -25 -10z"/>
<path d="M1422 3545 c9 -10 21 -16 28 -13 7 2 -1 10 -16 17 -27 12 -28 11 -12
-4z"/>
<path d="M1488 3553 c7 -3 16 -2 19 1 4 3 -2 6 -13 5 -11 0 -14 -3 -6 -6z"/>
<path d="M2666 3402 c5 -4 36 -39 67 -79 60 -76 84 -91 117 -73 28 15 25 28
-5 22 -21 -4 -37 8 -93 67 -37 39 -74 71 -82 71 -9 0 -11 -3 -4 -8z"/>
<path d="M1510 3255 c-7 -8 -16 -13 -20 -10 -4 3 -13 -2 -20 -10 -20 -25 6
-18 37 10 15 13 25 25 22 25 -4 0 -12 -7 -19 -15z"/>
<path d="M1470 2180 l-20 -40 24 0 c14 0 28 5 31 10 11 18 27 11 20 -9 -12
-38 15 -31 35 9 17 34 18 41 6 46 -8 3 -26 -2 -40 -11 -28 -19 -32 -15 -16 16
8 15 7 19 -4 19 -9 0 -25 -18 -36 -40z"/>
<path d="M2733 2204 c-37 -16 -39 -23 -18 -64 18 -34 40 -40 32 -9 -7 25 21
39 37 17 6 -8 17 -13 23 -11 9 3 7 15 -7 44 -23 43 -22 43 -67 23z m32 -24
c-3 -5 -13 -10 -21 -10 -8 0 -12 5 -9 10 3 6 13 10 21 10 8 0 12 -4 9 -10z"/>
<path d="M1581 2146 c-12 -18 -21 -36 -21 -40 0 -12 23 -5 37 12 13 16 14 15
10 -5 -6 -30 13 -34 35 -9 18 21 18 21 12 -6 -5 -21 -2 -28 9 -28 13 0 27 39
27 76 0 20 -30 17 -46 -3 -12 -16 -13 -15 -14 10 0 38 -24 35 -49 -7z"/>
<path d="M2663 2161 c6 -25 -23 -38 -35 -16 -5 8 -15 15 -23 15 -11 0 -11 -7
2 -40 16 -40 50 -59 38 -21 -4 13 0 20 15 24 13 3 20 0 20 -9 0 -8 9 -14 19
-14 19 0 19 1 3 40 -17 41 -49 57 -39 21z"/>
<path d="M2525 2143 c-32 -8 -35 -16 -24 -56 10 -39 29 -50 29 -18 0 10 7 22
16 25 22 9 24 8 24 -9 0 -8 7 -15 15 -15 18 0 18 7 4 49 -11 31 -21 34 -64 24z
m35 -23 c0 -5 -10 -10 -22 -10 -19 0 -20 2 -8 10 19 13 30 13 30 0z"/>
<path d="M1752 2097 c-8 -44 3 -63 20 -33 13 23 38 20 38 -4 0 -35 27 -22 35
16 7 42 -1 56 -20 31 -14 -19 -47 -13 -39 8 3 7 -2 15 -10 18 -11 5 -17 -5
-24 -36z"/>
<path d="M2443 2123 c-7 -2 -13 -14 -14 -26 l0 -22 -11 23 c-12 24 -16 26 -37
13 -10 -6 -12 -19 -7 -45 8 -40 26 -49 26 -13 1 20 2 21 14 5 18 -25 36 -22
37 5 l0 22 11 -22 c13 -28 44 -32 33 -5 -4 9 -12 29 -17 45 -10 27 -13 29 -35
20z"/>
<path d="M1905 2101 c3 -6 17 -11 31 -11 13 0 24 -4 24 -9 0 -4 -11 -6 -25 -3
-15 2 -25 0 -25 -7 0 -6 11 -11 25 -11 14 0 25 -4 25 -10 0 -5 -13 -7 -29 -4
-16 3 -31 2 -35 -4 -6 -10 72 -27 82 -18 2 3 5 22 6 43 1 38 1 38 -42 41 -29
2 -42 0 -37 -7z"/>
<path d="M2271 2101 c-23 -15 -5 -41 29 -41 16 0 30 -4 30 -10 0 -5 -13 -10
-30 -10 -16 0 -30 -5 -30 -11 0 -6 17 -9 43 -7 42 3 42 3 45 46 2 33 0 42 -12
42 -9 0 -16 -9 -16 -20 0 -27 -37 -27 -42 0 -2 14 -7 17 -17 11z"/>
<path d="M2050 2057 l0 -42 46 3 c28 3 48 10 51 18 7 19 1 25 -39 34 l-33 8
33 1 c50 2 38 21 -13 21 l-45 0 0 -43z m63 -14 c-7 -2 -19 -2 -25 0 -7 3 -2 5
12 5 14 0 19 -2 13 -5z"/>
<path d="M2160 2055 c0 -33 4 -45 15 -45 8 0 15 9 15 20 0 13 7 20 20 20 11 0
20 -7 20 -15 0 -8 7 -15 16 -15 11 0 14 5 10 16 -3 9 -6 27 -6 40 0 22 -4 24
-45 24 l-45 0 0 -45z m70 21 c0 -2 -9 -6 -20 -9 -11 -3 -20 -1 -20 4 0 5 9 9
20 9 11 0 20 -2 20 -4z"/>
<path d="M1690 2076 c0 -9 5 -16 10 -16 6 0 10 4 10 9 0 6 -4 13 -10 16 -5 3
-10 -1 -10 -9z"/>
<path d="M1522 2022 l3 -45 65 -18 c87 -25 87 -25 92 20 l3 39 -83 25 -83 25
3 -46z"/>
<path d="M2668 2043 l-88 -26 0 -43 c0 -37 -3 -44 -22 -48 -162 -34 -158 -35
-158 14 0 40 0 40 -39 40 -21 0 -59 -3 -85 -6 -46 -7 -46 -7 -46 -46 l0 -40
85 7 85 7 0 -44 0 -44 78 12 c42 7 82 13 89 13 7 1 13 20 15 48 l3 46 88 25
87 25 0 43 c0 24 -1 44 -2 43 -2 0 -42 -12 -90 -26z"/>
<path d="M1850 2045 c0 -16 16 -20 24 -6 3 5 -1 11 -9 15 -9 3 -15 0 -15 -9z"/>
<path d="M2000 2030 c0 -5 5 -10 10 -10 6 0 10 5 10 10 0 6 -4 10 -10 10 -5 0
-10 -4 -10 -10z"/>
<path d="M1870 1945 c0 -40 2 -45 23 -45 12 0 52 -3 90 -7 l67 -6 0 41 0 41
-57 6 c-32 3 -73 8 -90 11 l-33 5 0 -46z"/>
<path d="M1690 1887 l0 -44 53 -7 c28 -4 69 -10 90 -13 l37 -6 0 41 0 41 -52
10 c-29 6 -70 13 -90 17 l-38 6 0 -45z"/>
<path d="M2050 1840 l0 -40 90 0 90 0 0 40 0 40 -90 0 -90 0 0 -40z"/>
<path d="M1700 1638 c-30 -16 -47 -27 -36 -23 41 12 46 -8 46 -192 l0 -174
-32 -14 c-32 -14 -30 -14 52 -14 75 -1 82 1 60 12 l-25 13 -5 211 -5 211 -55
-30z"/>
<path d="M1944 1663 c-27 -5 -72 -52 -74 -78 -5 -47 2 -67 36 -105 l36 -40
-26 -21 c-63 -50 -72 -115 -22 -165 29 -29 41 -34 80 -34 53 0 100 20 116 49
5 11 10 38 10 61 0 35 -7 48 -44 87 l-43 46 38 37 c49 46 54 97 14 134 -22 20
-73 39 -94 35 -3 -1 -16 -4 -27 -6z m84 -29 c32 -22 30 -83 -4 -123 -14 -17
-29 -31 -33 -31 -5 0 -24 16 -44 35 -26 26 -37 45 -37 65 0 59 67 90 118 54z
m-14 -254 c52 -55 60 -96 26 -130 -58 -58 -154 15 -130 100 11 38 37 80 49 80
4 0 29 -22 55 -50z"/>
<path d="M2214 1656 c-30 -13 -64 -50 -64 -70 0 -5 10 0 23 11 47 44 105 35
127 -18 20 -47 -7 -100 -65 -125 -20 -9 -24 -13 -12 -14 33 0 84 -30 96 -56
42 -93 -35 -177 -119 -129 -39 22 -62 19 -58 -7 3 -21 9 -23 65 -26 71 -3 110
12 141 56 45 62 34 151 -23 188 -26 17 -26 17 -7 38 47 52 50 96 8 135 -29 27
-74 34 -112 17z"/>
<path d="M2500 1653 c-56 -29 -91 -109 -91 -211 0 -136 51 -222 132 -222 84 0
134 87 134 230 -1 66 -6 94 -22 125 -43 81 -94 107 -153 78z m70 -13 c64 -34
67 -331 5 -390 -22 -20 -28 -22 -50 -12 -43 20 -59 73 -59 192 0 119 15 182
47 205 25 18 32 18 57 5z"/>
<path d="M1955 4790 c4 -6 11 -8 16 -5 14 9 11 15 -7 15 -8 0 -12 -5 -9 -10z"/>
<path d="M1710 4771 c0 -7 -6 -11 -15 -7 -12 4 -13 2 -3 -14 8 -13 16 -16 24
-10 6 6 14 7 17 3 4 -3 7 -1 7 6 0 7 4 9 10 6 6 -3 7 1 3 10 -5 13 -7 14 -14
3 -7 -11 -11 -10 -19 2 -7 12 -10 12 -10 1z"/>
<path d="M2537 4765 c-4 -9 -3 -13 3 -10 6 3 10 1 10 -6 0 -8 4 -8 15 1 10 8
15 9 15 2 0 -6 7 -9 15 -6 8 4 15 14 15 23 0 14 -2 14 -10 1 -8 -12 -11 -13
-19 -1 -7 11 -9 11 -14 0 -5 -12 -7 -12 -15 -1 -7 11 -10 11 -15 -3z"/>
<path d="M1647 4740 c-3 -12 3 -26 17 -37 11 -9 15 -11 9 -3 -7 8 -13 20 -13
28 0 12 3 12 15 2 8 -7 15 -8 15 -4 0 5 -9 15 -19 21 -16 10 -20 9 -24 -7z"/>
<path d="M2423 4668 c-46 -47 -83 -91 -83 -96 0 -5 7 -15 15 -22 23 -19 18
-46 -11 -69 -17 -13 -21 -21 -12 -21 39 0 60 61 36 100 -12 18 -8 25 38 68 27
26 63 63 78 82 24 30 27 32 23 11 -4 -18 -3 -21 5 -13 7 7 8 18 2 29 -8 16
-20 6 -91 -69z"/>
<path d="M2617 4746 c-9 -7 -17 -18 -17 -25 0 -6 9 -2 21 10 24 24 22 33 -4
15z"/>
<path d="M1620 4734 c0 -8 5 -12 10 -9 6 4 8 11 5 16 -9 14 -15 11 -15 -7z"/>
<path d="M2650 4737 c-8 -7 -22 -21 -30 -32 -11 -15 -7 -14 13 4 31 28 38 11
10 -23 -17 -20 -17 -20 6 0 26 24 27 72 1 51z"/>
<path d="M1601 4717 c0 -10 -5 -15 -11 -12 -5 3 -10 2 -10 -4 0 -5 -2 -15 -5
-23 -3 -7 6 -18 22 -25 l28 -13 -22 19 c-29 25 -18 34 16 13 25 -16 26 -16 10
3 -10 11 -19 29 -22 40 -4 17 -5 17 -6 2z"/>
<path d="M2680 4713 c0 -9 -8 -25 -17 -36 -17 -19 -17 -20 5 -8 14 7 22 21 22
36 0 14 -2 25 -5 25 -3 0 -5 -8 -5 -17z"/>
<path d="M1635 4690 c10 -11 20 -20 22 -20 2 0 -2 9 -9 20 -7 11 -17 20 -22
20 -5 0 -1 -9 9 -20z"/>
<path d="M2703 4695 c1 -11 -7 -28 -18 -38 -20 -18 -20 -18 5 -5 14 7 26 13
28 14 1 1 -2 12 -8 25 -8 19 -9 20 -7 4z"/>
<path d="M1760 4691 c0 -5 -7 -11 -17 -13 -14 -3 -14 -5 2 -18 11 -9 16 -10
11 -2 -7 11 5 17 28 13 5 -1 4 5 -4 13 -14 18 -20 20 -20 7z"/>
<path d="M2506 4681 c-3 -5 2 -8 12 -7 10 0 16 -5 14 -13 -3 -12 0 -12 13 -1
8 7 13 15 10 18 -10 10 -44 12 -49 3z"/>
<path d="M1660 4656 c0 -2 8 -10 18 -17 15 -13 16 -12 3 4 -13 16 -21 21 -21
13z"/>
<path d="M1840 4630 c15 -16 31 -30 34 -30 3 0 -6 14 -21 30 -14 17 -30 30
-34 30 -4 0 6 -13 21 -30z"/>
<path d="M2609 4643 c-13 -16 -12 -17 4 -4 9 7 17 15 17 17 0 8 -8 3 -21 -13z"/>
<path d="M1560 4641 c0 -11 79 -36 87 -28 3 4 -3 7 -13 7 -11 0 -25 5 -32 12
-14 14 -42 20 -42 9z"/>
<path d="M2443 4638 c-15 -20 -25 -38 -20 -38 3 0 12 11 21 25 17 26 16 35 -1
13z"/>
<path d="M2689 4633 c-6 -7 -21 -13 -32 -13 -11 0 -17 -3 -14 -7 8 -7 87 17
87 27 0 12 -30 7 -41 -7z"/>
<path d="M1662 4624 c9 -9 21 -15 27 -13 6 2 -2 10 -17 17 -25 11 -25 11 -10
-4z"/>
<path d="M2610 4624 c-14 -7 -20 -14 -14 -14 14 0 14 -33 0 -43 -7 -6 -6 -7 4
-4 8 2 16 13 16 25 1 12 7 28 14 37 15 18 13 18 -20 -1z"/>
<path d="M1731 4613 c9 -10 6 -15 -12 -22 -13 -5 -17 -10 -9 -10 19 0 59 17
45 19 -5 1 -1 5 10 9 17 7 15 9 -12 13 -26 4 -30 2 -22 -9z"/>
<path d="M2520 4620 c-13 -8 -12 -10 3 -10 10 0 15 -4 12 -10 -3 -5 -3 -10 2
-10 4 0 19 -3 33 -5 l25 -6 -24 11 c-20 9 -22 12 -10 28 13 15 12 16 -3 4 -10
-8 -17 -9 -20 -3 -2 7 -8 7 -18 1z"/>
<path d="M1564 4609 c-3 -6 -1 -16 5 -22 18 -18 13 -31 -6 -16 -16 13 -17 12
-4 -4 8 -9 11 -20 8 -24 -9 -8 24 -32 43 -32 8 0 4 5 -10 11 -17 7 -20 12 -11
15 11 5 11 7 0 14 -9 6 1 9 31 10 41 2 42 3 10 6 -37 5 -60 19 -60 35 0 6 7 5
15 -2 9 -7 17 -11 20 -9 2 3 -4 10 -15 17 -13 8 -21 8 -26 1z"/>
<path d="M1795 4610 c-3 -5 -8 -19 -10 -30 -3 -17 1 -20 28 -19 21 1 25 3 12
6 -34 8 -43 25 -10 18 27 -5 27 -4 7 5 -13 5 -20 14 -17 20 3 5 4 10 1 10 -3
0 -8 -4 -11 -10z"/>
<path d="M2484 4612 c8 -14 -31 -32 -52 -25 -8 4 -10 0 -6 -11 4 -10 1 -16 -7
-16 -11 0 -11 -3 1 -10 8 -5 33 -9 55 -8 l40 1 -37 4 c-21 2 -38 9 -38 14 0
11 50 32 58 25 3 -3 -1 -8 -9 -10 -8 -2 -21 -7 -29 -9 -8 -3 -1 -6 17 -6 28
-1 31 2 28 21 -3 12 -10 26 -16 32 -9 8 -10 8 -5 -2z"/>
<path d="M2695 4604 c-10 -8 -14 -14 -9 -14 6 0 15 5 22 12 8 8 12 8 12 1 0
-17 -23 -31 -60 -36 l-35 -4 40 -1 c31 -1 44 4 57 22 21 29 3 42 -27 20z"/>
<path d="M1850 4571 c0 -15 -8 -21 -37 -24 l-38 -4 40 -1 c22 -1 47 3 55 8 12
7 12 10 1 10 -7 0 -11 6 -7 15 3 8 1 15 -4 15 -6 0 -10 -9 -10 -19z"/>
<path d="M1738 4563 c7 -3 16 -2 19 1 4 3 -2 6 -13 5 -11 0 -14 -3 -6 -6z"/>
<path d="M2538 4563 c7 -3 16 -2 19 1 4 3 -2 6 -13 5 -11 0 -14 -3 -6 -6z"/>
<path d="M1134 4531 c-18 -11 -57 -51 -88 -89 -73 -92 -97 -108 -174 -115 -34
-3 -74 -13 -88 -22 -14 -9 -39 -48 -58 -89 -19 -40 -43 -79 -53 -87 -19 -13
-17 -14 24 -14 32 0 48 -5 58 -18 10 -14 21 -17 44 -12 46 10 80 42 106 102
27 59 51 75 137 87 29 5 68 21 99 42 28 19 53 34 55 34 2 0 4 -11 4 -25 0 -15
-20 -46 -55 -86 -57 -64 -72 -103 -60 -159 14 -65 72 -62 252 15 122 52 166
62 198 45 21 -11 28 -9 70 25 25 21 44 43 42 49 -9 28 -71 56 -123 56 -44 0
-69 -8 -149 -51 -107 -56 -134 -59 -150 -15 -9 26 -7 31 25 55 105 78 116 117
49 171 -23 18 -50 52 -61 76 -16 36 -24 44 -46 44 -15 0 -41 -9 -58 -19z m1
-37 c14 -6 13 -9 -6 -30 -19 -21 -20 -24 -6 -30 9 -3 14 -11 10 -17 -3 -6 -1
-7 6 -3 6 4 9 12 6 17 -3 5 1 6 10 3 12 -5 13 -9 3 -21 -11 -14 -20 -43 -13
-43 1 0 23 12 49 26 41 23 50 25 76 14 74 -31 65 -68 -35 -145 -124 -95 -155
-195 -61 -195 28 0 29 1 10 15 -18 14 -17 14 9 5 17 -6 27 -6 27 0 0 6 -7 10
-15 10 -8 0 -15 4 -15 9 0 4 12 7 28 4 23 -3 24 -2 7 6 -19 9 -18 10 4 10 22
1 23 2 8 14 -15 10 -11 12 25 12 33 0 61 11 117 45 60 35 85 45 133 48 36 3
64 0 71 -7 8 -8 8 -11 -2 -11 -7 0 -10 -4 -7 -9 3 -4 -7 -6 -22 -4 -21 4 -24
2 -12 -6 13 -10 13 -11 0 -11 -13 0 -13 -1 0 -10 13 -8 12 -10 -3 -10 -10 0
-15 -4 -12 -10 4 -6 -9 -10 -30 -10 -21 0 -91 -22 -160 -50 -148 -59 -195 -69
-218 -45 -20 19 -22 67 -5 98 6 12 33 48 60 80 31 37 48 68 48 85 1 26 1 27
17 7 15 -20 15 -20 10 3 -5 23 8 31 16 10 3 -8 6 -6 6 5 1 9 5 17 10 17 5 0
12 -8 14 -17 4 -14 5 -12 6 5 1 15 -7 26 -23 34 -28 12 -55 1 -155 -63 -52
-32 -59 -34 -170 -39 -87 -5 -123 -10 -142 -23 -28 -19 -57 -73 -45 -84 4 -4
9 3 13 15 3 12 9 22 14 22 5 0 4 -12 -1 -26 -6 -14 -6 -23 -1 -20 5 4 11 0 13
-6 3 -8 12 0 21 17 l17 30 -6 -30 -5 -30 16 25 16 25 -6 -29 -6 -30 21 25 21
24 -16 -32 c-8 -18 -30 -40 -47 -49 -29 -15 -34 -15 -59 0 -15 9 -34 16 -43
16 -9 0 -16 2 -16 4 0 13 71 144 83 155 9 6 46 17 84 22 80 13 121 37 165 99
30 43 69 90 74 90 1 0 10 -3 19 -6z m25 -29 c0 -2 -10 -9 -22 -15 -22 -11 -22
-10 -4 4 21 17 26 19 26 11z m15 -65 c-3 -5 -11 -10 -16 -10 -6 0 -7 5 -4 10
3 6 11 10 16 10 6 0 7 -4 4 -10z m-364 -207 c-12 -20 -14 -14 -5 12 4 9 9 14
11 11 3 -2 0 -13 -6 -23z"/>
<path d="M1109 4473 c-13 -16 -12 -17 4 -4 9 7 17 15 17 17 0 8 -8 3 -21 -13z"/>
<path d="M1725 4541 c-3 -5 0 -13 6 -17 7 -4 9 -3 5 4 -3 6 2 13 11 15 16 4
16 5 1 6 -9 0 -19 -3 -23 -8z"/>
<path d="M2543 4543 c9 -2 14 -9 11 -15 -4 -7 -2 -8 5 -4 15 10 4 26 -17 25
-15 -1 -15 -2 1 -6z"/>
<path d="M2690 4546 c0 -7 40 -14 44 -7 3 4 -6 8 -20 9 -13 1 -24 0 -24 -2z"/>
<path d="M3075 4512 c-9 -22 -36 -58 -61 -81 -68 -61 -59 -93 46 -172 32 -24
34 -29 25 -55 -16 -44 -43 -41 -150 15 -80 43 -105 51 -149 51 -52 0 -114 -28
-123 -55 -2 -6 17 -28 43 -49 41 -35 48 -37 69 -26 34 18 74 9 212 -49 141
-59 196 -67 225 -32 20 26 24 81 6 114 -6 12 -33 46 -60 75 -29 33 -48 63 -48
78 0 30 2 30 55 -6 23 -16 65 -35 91 -41 108 -25 117 -31 144 -86 33 -68 56
-91 100 -104 34 -10 40 -9 60 11 18 18 30 21 62 17 39 -5 39 -5 18 10 -12 9
-37 48 -55 87 -43 94 -59 107 -142 115 -80 8 -107 24 -162 94 -67 87 -104 118
-149 124 -40 5 -41 5 -57 -35z m152 -49 c15 -21 51 -61 78 -89 45 -46 56 -52
105 -59 106 -13 114 -18 154 -101 20 -41 36 -77 36 -80 0 -2 -10 -4 -22 -4
-12 0 -29 -7 -39 -16 -10 -9 -26 -13 -37 -10 -27 9 -72 55 -72 74 0 13 3 12
15 -4 13 -18 14 -18 9 6 l-5 25 16 -25 16 -25 -5 30 -6 30 16 -28 c8 -16 18
-27 21 -24 2 3 -1 15 -7 27 -6 12 -9 24 -6 27 3 3 10 -6 15 -21 14 -34 23 -33
16 2 -5 26 -5 26 6 5 14 -27 31 -31 22 -5 -26 72 -70 92 -209 92 -90 0 -92 1
-155 41 -91 59 -127 73 -156 60 -15 -7 -23 -19 -22 -33 l0 -23 9 23 c5 12 15
22 22 22 9 0 9 -3 0 -12 -17 -17 -15 -33 3 -18 13 10 15 9 15 -11 0 -22 0 -22
15 -3 14 18 14 18 15 -8 0 -16 18 -48 49 -85 61 -73 71 -93 71 -137 0 -72 -48
-70 -244 10 -60 25 -125 46 -146 47 -21 1 -36 5 -33 10 2 4 -4 7 -14 7 -15 0
-16 2 -3 10 13 9 13 10 0 10 -12 0 -12 2 -2 9 10 6 4 10 -18 14 -49 10 -25 27
37 27 48 0 69 -7 150 -51 77 -41 101 -50 126 -45 30 5 31 5 13 -9 -19 -15 -19
-15 5 -16 22 0 23 -1 4 -10 -17 -8 -16 -9 8 -5 20 2 25 0 18 -7 -19 -19 -12
-28 12 -16 20 11 21 11 8 -4 -12 -15 -11 -17 12 -17 34 0 51 23 44 60 -10 48
-35 78 -119 142 -68 51 -79 64 -76 86 4 38 58 67 98 53 32 -11 64 -5 54 10 -3
5 -1 9 5 9 5 0 8 9 6 20 -4 21 9 27 20 10 3 -5 2 -10 -4 -10 -5 0 -8 -9 -6
-20 2 -11 -1 -20 -6 -20 -6 0 -7 -4 -4 -10 3 -6 -1 -7 -9 -4 -24 9 -19 -4 5
-17 15 -8 19 -8 15 0 -4 6 -3 11 3 11 5 0 8 9 6 20 -2 11 0 20 5 20 11 0 7 25
-8 43 -10 12 -10 16 0 20 23 9 27 7 55 -30z"/>
<path d="M3180 4486 c0 -2 8 -10 18 -17 15 -13 16 -12 3 4 -13 16 -21 21 -21
13z"/>
<path d="M2748 4233 c7 -3 16 -2 19 1 4 3 -2 6 -13 5 -11 0 -14 -3 -6 -6z"/>
<path d="M2798 4183 c7 -3 16 -2 19 1 4 3 -2 6 -13 5 -11 0 -14 -3 -6 -6z"/>
<path d="M1825 4530 c-22 -4 -33 -8 -25 -9 13 -1 13 -3 1 -10 -9 -6 -22 -6
-32 0 -10 5 -20 5 -23 0 -12 -19 42 -16 89 5 53 24 53 25 -10 14z"/>
<path d="M2469 4511 c63 -31 90 -40 61 -21 -13 8 -12 10 3 10 10 0 15 5 12 10
-4 6 -13 7 -24 1 -9 -5 -23 -6 -30 -2 -11 7 -11 10 0 14 8 3 0 6 -18 6 -17 1
-40 3 -50 7 -10 3 11 -9 46 -25z"/>
<path d="M2685 4520 c-16 -7 -17 -9 -3 -9 9 -1 20 4 23 9 7 11 7 11 -20 0z"/>
<path d="M2585 4511 c3 -5 -3 -12 -12 -14 -14 -4 -14 -5 3 -6 12 0 24 6 28 14
3 9 0 15 -10 15 -8 0 -13 -4 -9 -9z"/>
<path d="M1625 4503 c-22 -6 -65 -33 -50 -32 14 1 92 38 80 37 -5 0 -19 -3
-30 -5z"/>
<path d="M2665 4490 c47 -22 67 -25 40 -6 -11 7 -33 16 -50 19 -26 5 -24 4 10
-13z"/>
<path d="M1698 4493 c6 -2 18 -2 25 0 6 3 1 5 -13 5 -14 0 -19 -2 -12 -5z"/>
<path d="M1838 4493 c7 -3 16 -2 19 1 4 3 -2 6 -13 5 -11 0 -14 -3 -6 -6z"/>
<path d="M1649 4483 c-1 -5 -2 -13 -3 -18 0 -6 -11 -22 -24 -35 -23 -24 -23
-25 -3 -28 11 -2 19 -9 17 -15 -1 -7 -1 -9 1 -4 3 4 9 4 15 1 5 -4 23 10 40
30 16 20 36 36 43 36 8 0 16 4 19 9 15 24 -38 -6 -65 -36 -23 -26 -33 -33 -42
-24 -8 8 -8 11 0 11 6 0 14 8 17 17 6 15 4 15 -14 -2 -11 -10 -23 -16 -25 -13
-3 3 8 17 25 32 25 21 28 26 13 26 -15 0 -16 2 -3 10 10 6 11 10 3 10 -7 0
-14 -3 -14 -7z"/>
<path d="M1861 4483 c-17 -7 -60 -54 -61 -66 0 -5 5 -5 10 -2 6 3 11 -4 11
-17 1 -17 3 -18 6 -5 2 9 9 17 14 17 5 0 9 4 9 10 0 5 -8 6 -17 3 -17 -7 -17
-6 -2 17 10 14 23 24 31 22 8 -1 15 5 15 13 0 8 -1 15 -1 14 -1 0 -7 -3 -15
-6z"/>
<path d="M1990 4486 c0 -2 8 -10 18 -17 15 -13 16 -12 3 4 -13 16 -21 21 -21
13z"/>
<path d="M2630 4481 c13 -9 12 -11 -3 -11 -15 0 -12 -5 12 -26 17 -14 29 -30
25 -35 -3 -5 2 -9 12 -9 14 0 15 2 3 18 -8 9 -18 20 -22 23 -5 3 -10 14 -11
24 -2 11 -9 21 -17 23 -11 3 -11 1 1 -7z"/>
<path d="M1693 4473 c4 -3 1 -13 -5 -22 -11 -14 -10 -14 7 0 11 9 27 19 35 22
8 3 2 6 -14 6 -16 1 -26 -2 -23 -6z"/>
<path d="M2420 4469 c-13 -8 -12 -9 4 -7 10 2 25 -7 35 -22 15 -23 15 -24 -1
-17 -10 3 -18 2 -18 -3 0 -6 4 -10 9 -10 5 0 12 -8 14 -17 3 -13 5 -12 6 5 0
13 6 20 11 17 18 -11 10 9 -15 38 -27 31 -25 30 -45 16z"/>
<path d="M2560 4473 c8 -3 24 -13 35 -22 17 -14 18 -14 7 0 -6 9 -9 19 -5 22
3 4 -7 7 -23 6 -16 0 -22 -3 -14 -6z"/>
<path d="M1601 4450 c-13 -11 -19 -20 -14 -20 6 0 18 9 28 20 23 25 17 25 -14
0z"/>
<path d="M2675 4450 c10 -11 22 -20 27 -20 4 0 -1 9 -12 20 -11 11 -23 20 -27
20 -3 0 2 -9 12 -20z"/>
<path d="M2397 4448 c6 -7 13 -20 16 -28 4 -10 6 -8 6 6 1 12 -6 25 -15 28
-13 5 -14 3 -7 -6z"/>
<path d="M2500 4456 c0 -2 7 -9 15 -16 9 -7 15 -8 15 -2 0 5 -7 12 -15 16 -8
3 -15 4 -15 2z"/>
<path d="M2586 4426 c19 -19 34 -43 34 -55 0 -12 5 -21 11 -21 5 0 7 5 4 10
-10 17 6 34 17 19 8 -11 9 -11 5 1 -2 8 -11 14 -21 12 -9 -2 -16 2 -16 7 0 11
-50 61 -61 61 -4 0 8 -15 27 -34z"/>
<path d="M1870 4430 c0 -11 2 -20 4 -20 2 0 6 9 9 20 3 11 1 20 -4 20 -5 0 -9
-9 -9 -20z"/>
<path d="M2626 4425 c4 -8 11 -15 16 -15 6 0 5 6 -2 15 -7 8 -14 15 -16 15 -2
0 -1 -7 2 -15z"/>
<path d="M1725 4420 c-3 -5 -1 -10 4 -10 6 0 11 5 11 10 0 6 -2 10 -4 10 -3 0
-8 -4 -11 -10z"/>
<path d="M1894 4397 c1 -32 3 -35 14 -20 6 9 12 26 11 37 0 21 -1 21 -8 1 l-8
-20 -5 20 c-3 11 -5 3 -4 -18z"/>
<path d="M2370 4413 c0 -12 5 -25 11 -28 16 -11 17 -2 2 25 -12 24 -13 24 -13
3z"/>
<path d="M2550 4420 c0 -5 5 -10 11 -10 5 0 7 5 4 10 -3 6 -8 10 -11 10 -2 0
-4 -4 -4 -10z"/>
<path d="M1756 4411 c-4 -5 3 -7 14 -4 23 6 26 13 6 13 -8 0 -17 -4 -20 -9z"/>
<path d="M2500 4416 c0 -2 9 -6 20 -9 11 -3 18 -1 14 4 -5 9 -34 13 -34 5z"/>
<path d="M1927 4393 c-3 -10 -5 -32 -5 -48 0 -17 -1 -35 -2 -40 -4 -19 0 -48
6 -43 5 6 13 148 8 148 -1 0 -5 -8 -7 -17z"/>
<path d="M2356 4340 c1 -39 5 -74 8 -78 12 -11 8 115 -3 136 -4 8 -7 -19 -5
-58z"/>
<path d="M1697 4393 c-4 -3 -7 -11 -7 -17 0 -6 5 -5 12 2 6 6 9 14 7 17 -3 3
-9 2 -12 -2z"/>
<path d="M1846 4391 c-4 -7 -5 -15 -2 -18 9 -9 19 4 14 18 -4 11 -6 11 -12 0z"/>
<path d="M2430 4391 c0 -5 5 -13 10 -16 6 -3 10 -2 10 4 0 5 -4 13 -10 16 -5
3 -10 2 -10 -4z"/>
<path d="M2580 4391 c0 -5 5 -13 10 -16 6 -3 10 -2 10 4 0 5 -4 13 -10 16 -5
3 -10 2 -10 -4z"/>
<path d="M1871 4374 c0 -11 3 -14 6 -6 3 7 2 16 -1 19 -3 4 -6 -2 -5 -13z"/>
<path d="M2411 4374 c0 -11 3 -14 6 -6 3 7 2 16 -1 19 -3 4 -6 -2 -5 -13z"/>
<path d="M1717 4365 c-4 -8 -2 -17 2 -20 5 -2 11 4 14 15 6 23 -8 27 -16 5z"/>
<path d="M2557 4360 c3 -12 8 -18 11 -15 3 2 11 0 19 -6 10 -9 13 -8 13 5 0
10 -5 14 -10 11 -6 -3 -13 1 -16 9 -9 23 -23 19 -17 -4z"/>
<path d="M3887 4362 c-10 -10 -17 -24 -17 -30 0 -7 -14 -12 -31 -12 l-31 0 6
-54 c7 -51 6 -54 -18 -60 -35 -9 -40 -38 -16 -93 19 -42 19 -48 4 -56 -10 -6
-14 -17 -10 -32 9 -35 -12 -41 -43 -11 -33 31 -54 33 -81 6 -28 -28 -25 -64 7
-90 26 -20 26 -22 11 -48 -16 -27 -9 -62 11 -62 5 0 25 -7 46 -16 36 -15 36
-16 20 -34 -23 -26 -7 -46 47 -61 35 -9 39 -13 34 -34 -5 -19 4 -33 44 -73 27
-27 50 -55 50 -63 0 -7 -21 7 -47 33 -80 76 -154 101 -161 52 -2 -16 8 -28 42
-48 24 -14 51 -26 60 -26 22 0 86 -80 86 -109 0 -18 -3 -22 -11 -14 -6 6 -17
9 -24 7 -7 -3 -15 6 -20 23 -9 38 -33 63 -60 63 -28 0 -43 -17 -51 -58 -8 -42
-44 -50 -85 -20 -28 21 -32 21 -57 7 -20 -11 -29 -25 -33 -54 -3 -22 -9 -47
-13 -56 -4 -9 6 -38 23 -70 l29 -55 -29 -16 c-45 -26 -34 -76 26 -116 41 -26
45 -42 10 -42 -48 0 -50 -86 -3 -111 15 -8 17 -14 9 -22 -13 -13 -15 -54 -2
-61 5 -4 -4 -19 -20 -35 -33 -33 -36 -56 -14 -89 13 -17 13 -26 5 -43 -10 -17
-7 -27 14 -58 18 -25 28 -56 32 -97 6 -57 5 -60 -20 -72 -16 -7 -26 -20 -26
-32 0 -22 41 -70 60 -70 6 0 8 -10 4 -25 -7 -29 10 -55 37 -55 14 0 19 -7 19
-29 0 -20 9 -36 25 -49 30 -24 31 -26 3 -54 l-21 -21 39 -35 c33 -29 36 -33
15 -28 -36 8 -61 -10 -61 -44 0 -16 5 -32 11 -35 7 -5 3 -14 -10 -26 -11 -11
-18 -26 -15 -34 4 -10 -9 -29 -35 -53 -39 -35 -43 -42 -53 -112 -9 -66 -14
-79 -45 -109 -32 -31 -35 -38 -31 -81 5 -46 33 -114 85 -201 l27 -47 -32 -52
c-18 -29 -30 -55 -28 -58 10 -9 35 20 59 68 14 27 28 46 31 42 10 -9 26 19 26
45 0 13 -11 30 -26 40 l-26 16 27 15 c37 19 47 2 39 -62 -8 -64 8 -54 46 26
42 89 47 134 20 163 -14 15 -20 30 -16 41 4 10 -1 25 -11 36 -14 16 -15 22 -4
39 9 16 10 24 0 35 -14 17 -12 19 18 28 24 8 23 10 43 -119 l9 -60 -5 75 c-2
41 -5 84 -7 95 -2 21 30 32 60 21 14 -6 13 -10 -7 -31 -24 -25 -22 -55 5 -55
21 0 19 -33 -5 -63 -11 -14 -20 -38 -20 -54 0 -15 -11 -52 -25 -81 -14 -30
-25 -57 -25 -60 0 -4 20 16 45 43 41 46 46 49 59 32 18 -23 44 -12 52 22 12
49 32 72 59 65 22 -5 26 -2 31 25 5 26 11 31 34 31 17 0 33 8 42 22 13 20 17
21 32 9 19 -16 21 -58 4 -63 -10 -4 -10 -10 -1 -30 15 -34 2 -51 -60 -77 -40
-17 -47 -24 -42 -40 8 -26 -25 -43 -73 -39 -31 3 -37 0 -40 -18 -4 -25 -27
-34 -92 -34 -56 0 -83 -18 -149 -97 l-51 -62 -55 0 c-30 1 -55 3 -55 5 0 1 5
15 12 30 11 23 10 28 -9 44 l-21 17 29 28 c34 32 38 82 7 77 -20 -3 -24 13 -7
24 13 7 5 60 -12 81 -29 35 -89 -5 -89 -59 0 -25 -3 -29 -12 -20 -18 18 -36
14 -53 -12 -13 -19 -14 -32 -6 -60 8 -32 7 -36 -9 -36 -23 0 -40 -29 -40 -68
0 -26 -6 -31 -47 -47 -59 -22 -93 -51 -93 -80 0 -36 -21 -85 -36 -85 -8 0 -14
6 -14 13 0 8 -9 22 -19 31 -27 25 -60 12 -77 -30 -12 -28 -20 -34 -43 -34 -43
0 -64 -25 -56 -67 4 -22 2 -40 -7 -50 -11 -14 -11 -15 2 -11 10 3 16 21 18 56
3 44 6 53 26 58 12 3 28 4 36 2 8 -2 23 14 34 34 26 46 50 48 72 6 17 -32 17
-32 -15 -58 -30 -25 -42 -60 -21 -60 6 0 10 -9 10 -21 0 -14 -10 -24 -30 -32
-32 -12 -40 -41 -15 -51 27 -10 16 -34 -24 -49 -47 -19 -57 -32 -35 -45 24
-13 13 -46 -16 -50 -59 -6 -72 -12 -60 -27 19 -23 -8 -29 -56 -10 -49 19 -55
30 -20 39 29 7 41 33 25 53 -10 11 -6 19 21 41 29 24 31 31 21 49 -15 28 -14
60 2 66 8 4 8 6 -2 6 -8 1 -25 11 -38 23 -19 18 -26 20 -48 10 -16 -8 -28 -23
-31 -42 -5 -22 -12 -30 -28 -30 -12 0 -27 -5 -34 -12 -15 -15 -16 -108 -1
-108 8 0 9 14 5 44 -7 47 1 61 39 61 14 0 21 8 23 25 5 36 22 51 51 48 23 -3
26 -8 26 -38 -1 -19 5 -40 13 -45 17 -13 7 -40 -24 -59 -18 -13 -22 -22 -18
-44 5 -23 0 -30 -26 -46 -51 -29 -58 -8 -21 65 17 34 31 69 30 78 0 9 -6 0
-14 -20 -35 -97 -64 -125 -116 -114 -34 8 -38 29 -8 45 24 13 20 24 -5 14 -10
-4 -22 -18 -27 -31 -11 -29 -29 -22 -29 11 0 54 -58 57 -85 5 -12 -22 -23 -29
-45 -29 -19 0 -33 -7 -40 -20 -9 -16 -21 -20 -61 -20 -98 0 -129 -38 -129
-159 0 -36 -3 -76 -6 -89 -7 -23 -7 -23 -21 -2 -21 30 -71 53 -101 45 -14 -3
-38 -15 -54 -26 l-28 -20 0 55 c0 55 -16 86 -44 86 -28 0 -64 41 -75 86 l-12
46 -38 -6 c-36 -5 -39 -3 -69 40 -18 25 -46 53 -63 62 -17 9 -47 30 -67 45
-44 34 -95 57 -128 57 l-23 0 18 -33 c25 -43 55 -137 46 -145 -10 -11 -32 25
-51 82 -17 53 -63 123 -108 165 -41 38 -30 14 19 -43 43 -50 78 -115 96 -178
10 -35 -12 -49 -45 -28 -19 12 -20 11 -8 -2 10 -13 10 -17 -4 -22 -27 -10 -32
-7 -58 37 -33 56 -52 178 -37 233 9 34 8 41 -9 58 -20 20 -20 20 -14 -49 l6
-70 -32 55 c-17 30 -46 71 -64 90 -17 19 -45 54 -60 77 -58 87 -62 85 -59 -40
l3 -112 -25 50 c-15 31 -25 67 -25 96 0 47 -17 72 -66 97 -16 9 -22 24 -27 64
-3 29 -20 84 -38 122 -34 72 -34 72 -54 11 -6 -19 -8 -18 -28 10 -12 17 -41
50 -65 75 l-44 45 6 -32 c7 -45 -8 -50 -33 -10 -19 32 -19 35 -3 79 l16 46
-33 53 c-20 32 -37 77 -43 114 -14 78 -29 106 -77 144 -38 30 -39 32 -25 60
15 30 24 164 12 176 -4 4 -21 -3 -38 -15 -17 -12 -33 -21 -35 -18 -7 7 17 98
26 98 19 0 77 45 99 76 22 33 84 204 76 211 -2 3 -16 -3 -30 -13 -15 -9 -28
-15 -30 -13 -2 2 -6 41 -8 87 -4 70 -2 87 13 107 26 32 49 128 49 199 l0 60
-52 -49 c-36 -35 -45 -41 -31 -20 36 53 60 109 72 164 6 30 9 56 7 58 -2 3
-14 0 -25 -7 -28 -15 -27 -8 15 57 28 43 33 58 22 64 -7 5 -16 9 -21 9 -4 0
11 16 33 36 65 58 54 105 -37 156 l-55 31 4 68 5 68 -66 -46 c-36 -25 -76 -55
-88 -66 -13 -11 -26 -17 -30 -13 -4 3 21 33 55 65 59 57 62 62 72 126 6 38 15
76 20 86 24 45 -10 39 -58 -10 -20 -21 -52 -46 -71 -55 l-34 -18 47 58 c65 79
95 143 105 222 5 37 13 76 17 86 6 15 -3 13 -42 -14 -27 -18 -58 -41 -70 -51
l-20 -19 4 59 c2 32 -1 83 -7 112 -14 66 -69 179 -115 236 l-34 43 5 -64 c3
-36 0 -100 -6 -143 -9 -53 -9 -91 -3 -120 15 -64 -7 -56 -75 28 -57 69 -58 70
-64 42 -22 -96 -1 -210 56 -308 15 -25 24 -45 20 -45 -3 0 -34 23 -68 50 l-62
50 -3 -46 c-2 -27 5 -75 17 -113 17 -55 32 -80 93 -148 64 -70 117 -143 105
-143 -2 0 -25 27 -50 60 -41 52 -151 150 -169 150 -3 0 0 -22 7 -50 17 -63 3
-66 -55 -12 l-40 39 0 -48 c0 -73 18 -147 55 -221 18 -38 30 -68 26 -68 -3 0
-32 16 -65 36 l-59 35 7 -33 c3 -18 26 -72 50 -120 41 -81 43 -90 34 -130 -12
-55 -4 -110 27 -177 14 -29 25 -55 25 -58 0 -3 -16 5 -36 16 -20 12 -39 19
-42 17 -3 -3 7 -37 21 -76 14 -38 24 -70 22 -70 -2 0 -22 16 -45 35 -24 20
-45 33 -49 29 -3 -4 0 -9 7 -11 6 -3 10 -8 7 -12 -2 -4 0 -49 5 -100 10 -93
26 -138 63 -178 28 -31 17 -38 -45 -25 -29 5 -54 9 -56 8 -1 -2 2 -14 7 -27 7
-17 10 -19 10 -6 1 20 4 20 71 6 28 -6 65 -23 83 -37 26 -22 23 -17 -14 28
-65 77 -89 129 -99 218 -5 42 -12 85 -15 95 -12 30 5 19 80 -53 59 -58 71 -75
67 -95 -5 -28 12 -53 45 -66 39 -15 80 -117 53 -134 -5 -3 -10 -2 -10 4 0 5
-30 45 -68 88 -37 43 -75 90 -85 103 l-18 25 12 -25 c7 -14 35 -52 64 -85 77
-89 90 -112 75 -130 -7 -8 -16 -15 -19 -15 -4 0 -29 -21 -55 -46 l-48 -46 -30
29 c-17 15 -44 48 -61 73 -16 25 -27 37 -23 27 3 -10 6 -23 6 -28 0 -6 20 -32
45 -58 l46 -49 -22 -36 c-20 -34 -20 -38 -5 -70 9 -19 16 -47 16 -62 l0 -27
-23 19 c-55 49 -57 49 -50 7 9 -65 43 -154 74 -200 l30 -44 -26 7 c-24 6 -25
5 -16 -17 5 -13 14 -43 20 -65 7 -28 25 -55 52 -79 l42 -37 -39 5 c-22 2 -49
8 -61 12 -22 7 -22 7 5 -55 15 -34 43 -80 62 -103 32 -36 42 -41 110 -52 l75
-12 -68 -2 -67 -1 17 -26 c9 -15 35 -40 58 -57 l40 -29 -52 4 c-36 4 -50 2
-46 -6 22 -38 91 -109 130 -135 l46 -31 -49 -1 c-27 0 -58 -4 -69 -9 -18 -7
-16 -11 28 -54 66 -64 118 -95 190 -112 55 -14 72 -14 147 -1 54 9 96 11 116
6 30 -9 92 -64 82 -74 -3 -3 -25 2 -49 11 -64 24 -162 23 -229 -3 -30 -12 -88
-28 -128 -35 -40 -7 -73 -17 -73 -23 0 -5 50 -29 113 -53 104 -41 120 -44 202
-44 87 1 88 1 70 -19 -10 -11 -45 -33 -79 -49 -33 -16 -72 -41 -85 -56 l-25
-27 115 6 c68 3 133 12 159 21 45 17 58 16 46 -3 -3 -6 -19 -11 -35 -11 -33 0
-60 -23 -60 -50 0 -40 60 -66 88 -38 7 7 12 22 12 35 0 12 8 27 19 32 47 26
21 -23 -59 -109 -17 -18 -30 -34 -30 -37 0 -5 52 -1 161 13 41 5 46 3 56 -19
11 -23 9 -26 -28 -42 -21 -10 -39 -21 -39 -25 0 -4 24 -13 54 -20 84 -20 86
-23 36 -69 l-45 -40 65 0 c36 0 85 4 109 10 24 5 46 8 48 5 3 -3 -5 -21 -17
-40 l-22 -36 24 0 c61 1 174 22 214 39 24 11 59 36 77 56 32 35 34 35 50 17
33 -37 26 -56 -50 -124 -40 -36 -97 -80 -128 -99 -61 -37 -68 -49 -27 -49 15
0 50 -3 79 -6 l52 -7 34 54 c33 52 74 97 80 88 2 -2 7 -17 13 -34 9 -28 13
-30 74 -36 36 -3 82 -13 102 -22 86 -39 148 -7 148 75 0 28 7 46 25 64 l26 25
28 -30 c39 -42 83 -42 140 -1 65 47 94 27 122 -84 19 -78 57 -91 156 -56 32
11 70 20 86 20 42 0 67 17 67 46 0 20 4 25 16 20 9 -3 17 -6 19 -6 2 0 18 -20
35 -45 17 -25 41 -54 52 -65 27 -25 82 -26 138 -4 l41 17 -42 24 c-23 13 -69
45 -103 71 -34 27 -83 63 -109 81 -45 31 -47 34 -34 54 22 33 35 31 51 -7 16
-39 39 -46 67 -21 15 15 17 13 23 -19 7 -38 29 -61 50 -53 8 3 17 -1 20 -9 7
-17 62 -19 73 -1 4 6 6 22 4 35 -2 22 13 30 24 12 9 -15 51 -12 64 4 9 11 19
12 48 3 32 -10 37 -9 54 12 11 14 19 39 19 62 0 37 1 38 26 29 36 -14 84 -12
85 3 1 6 1 19 0 27 -1 8 8 20 21 25 12 6 31 23 42 38 25 34 13 60 -28 65 -20
3 -26 9 -26 26 0 41 24 51 63 27 45 -28 83 -28 90 0 5 17 10 20 29 14 59 -19
85 -17 101 5 8 12 20 20 25 17 5 -4 19 1 31 9 16 12 21 24 19 47 -3 29 -7 32
-39 35 -27 2 -38 9 -42 23 -6 24 -53 26 -85 3 -34 -24 -52 -11 -52 35 0 40 0
40 26 29 20 -9 30 -9 45 0 16 10 24 9 48 -9 31 -23 61 -20 61 6 0 22 8 19 39
-14 29 -31 67 -33 78 -5 3 8 18 14 35 14 42 0 68 17 68 44 0 13 5 37 11 54 21
60 -27 96 -71 52 -11 -11 -20 -16 -20 -10 0 5 -9 14 -19 19 -15 8 -27 5 -57
-15 l-38 -26 -17 24 c-18 23 -19 23 -50 5 -24 -13 -35 -15 -45 -6 -10 8 -20 6
-41 -8 -38 -27 -61 -34 -68 -22 -4 5 2 12 12 16 10 4 32 16 48 28 51 37 92 48
150 42 68 -7 122 7 130 33 7 23 9 23 54 10 38 -11 71 1 71 26 0 13 4 13 30 -1
49 -25 90 -14 90 25 0 8 9 21 21 28 30 19 23 74 -11 82 -24 7 -24 7 13 23 32
14 37 20 37 50 0 23 8 40 25 55 29 25 32 53 9 76 -21 22 -38 20 -72 -9 -32
-27 -52 -19 -52 22 0 21 5 23 49 23 59 0 86 20 76 57 -6 24 -3 26 45 37 28 6
65 59 56 82 -3 8 1 26 10 39 19 29 8 53 -36 85 -32 23 -35 47 -6 42 10 -2 33
2 53 9 30 10 34 15 30 38 -2 14 -8 34 -12 43 -5 13 -3 18 8 18 9 0 28 10 43
23 26 22 26 24 11 54 -14 26 -14 33 -2 49 24 31 18 71 -12 91 -25 17 -26 17
-41 -5 -16 -25 -42 -30 -42 -8 0 8 11 28 25 44 30 35 31 50 8 91 -18 30 -18
31 5 47 15 10 22 24 20 37 -2 15 6 28 24 39 29 19 36 46 16 66 -9 9 -7 16 7
32 21 23 24 72 5 94 -19 24 -53 19 -84 -13 -18 -19 -41 -30 -68 -34 -52 -7
-67 -21 -50 -48 28 -44 -32 -68 -65 -26 -10 13 -23 22 -29 20 -6 -2 -16 3 -23
11 -20 23 3 94 32 98 19 3 22 9 22 53 0 38 4 50 16 53 10 2 19 -6 23 -20 9
-32 23 -8 31 54 5 38 11 48 25 48 11 0 22 -5 25 -11 4 -5 16 8 27 30 20 41 38
54 63 45 20 -8 20 -74 0 -100 -19 -26 -19 -34 4 -34 25 0 33 -35 12 -53 -9 -8
-31 -18 -48 -22 -41 -8 -45 -14 -27 -45 l14 -25 -6 28 c-5 23 -3 27 15 27 63
0 101 52 66 90 -11 13 -13 24 -5 51 14 47 13 65 -6 83 -27 28 -62 20 -85 -19
-12 -19 -25 -35 -29 -35 -20 0 -18 21 5 62 30 51 65 159 65 197 -1 25 -2 25
-20 -10 -22 -43 -75 -91 -125 -115 -20 -9 -34 -19 -31 -21 3 -3 26 5 51 17 60
29 69 19 13 -14 -24 -14 -38 -26 -33 -26 6 0 25 9 44 21 53 32 49 13 -5 -20
-52 -33 -52 -40 -1 -15 l32 15 -25 -21 c-21 -19 -22 -21 -5 -16 20 6 20 6 1
-9 -11 -8 -25 -15 -30 -15 -6 0 -4 5 4 11 12 8 12 10 1 7 -17 -5 -24 -38 -9
-38 19 0 -14 -31 -56 -53 -57 -29 -239 -78 -247 -66 -3 6 -5 29 -5 52 1 35 7
45 35 64 34 23 27 32 -10 13 -10 -6 -19 -8 -19 -6 0 3 17 14 38 25 47 26 37
27 -20 2 -69 -30 -97 -75 -78 -125 19 -50 110 -134 222 -203 111 -69 228 -167
228 -192 0 -7 -20 5 -45 28 -59 54 -68 52 -16 -4 39 -43 52 -63 31 -50 -5 3
-10 1 -10 -6 0 -7 -17 3 -37 22 l-38 34 34 -37 c19 -21 38 -35 42 -32 4 2 11
-1 15 -7 4 -8 3 -9 -4 -5 -16 9 -15 -7 0 -22 7 -7 8 -12 2 -12 -6 0 -23 14
-39 30 -19 20 -35 28 -47 24 -14 -4 -18 0 -18 19 0 13 -9 32 -20 42 -17 15
-24 16 -45 7 -21 -10 -24 -16 -19 -38 6 -24 5 -25 -15 -15 -16 9 -21 21 -21
49 0 48 -14 72 -32 54 -17 -17 -28 -15 -28 6 0 29 -33 52 -73 52 -20 0 -39 5
-42 10 -3 6 -1 10 6 10 7 0 0 13 -16 30 -16 17 -23 30 -17 30 7 0 15 -6 18
-14 3 -8 12 -17 21 -20 8 -4 1 10 -16 29 -43 49 -39 57 7 13 30 -29 39 -34 49
-23 9 10 3 21 -30 51 l-41 39 34 -45 34 -45 -33 30 c-33 31 -63 74 -42 61 6
-4 11 -2 11 5 0 6 22 -9 50 -35 27 -25 54 -46 60 -46 6 0 -18 27 -54 60 -142
133 -120 217 74 279 52 16 120 37 151 45 65 18 153 90 175 143 26 61 14 142
-30 205 -15 21 -15 21 -12 -6 1 -14 6 -29 9 -33 4 -3 7 -13 7 -21 0 -9 -7 -6
-20 9 -23 28 -26 18 -5 -15 9 -13 13 -31 9 -39 -5 -15 -9 -14 -26 6 -11 12
-17 15 -13 7 4 -8 -3 -4 -14 9 l-21 23 25 24 c14 13 25 32 25 44 0 30 26 24
54 -12 22 -30 38 -78 50 -148 2 -14 2 0 0 31 -3 51 -1 58 26 84 31 30 39 55
18 55 -7 1 2 14 21 30 27 23 33 34 28 56 -4 21 1 32 19 47 30 23 31 51 2 71
-17 12 -19 18 -9 30 18 21 9 76 -14 92 -16 11 -25 11 -45 1 -21 -11 -27 -10
-42 5 -24 24 -54 23 -71 -3 -17 -24 -32 -10 -22 22 5 16 12 19 31 15 28 -7 64
8 64 27 0 7 13 18 30 24 50 19 53 93 4 101 -11 2 -24 13 -29 25 -15 33 -68 35
-100 3 -16 -16 -34 -24 -51 -23 -21 2 -35 -8 -61 -41 -38 -51 -44 -47 -9 5 17
25 23 44 20 63 -5 21 0 30 20 43 28 18 36 62 14 70 -8 3 1 19 26 45 32 33 37
44 27 56 -10 11 -6 18 19 36 34 24 36 32 15 53 -10 10 -13 25 -9 46 6 26 3 32
-21 43 -25 11 -29 10 -43 -10 -11 -17 -18 -19 -32 -12 -15 8 -23 5 -38 -15
-11 -14 -27 -25 -37 -25 -14 0 -14 3 4 26 26 32 26 43 4 60 -17 12 -16 14 10
41 30 32 35 68 11 77 -12 5 -15 14 -10 39 11 61 -40 100 -77 59z m58 -48 c0
-25 7 -47 18 -58 23 -24 22 -32 -13 -58 -33 -24 -38 -43 -15 -52 19 -7 19 -30
-1 -61 -19 -29 -14 -50 11 -50 29 0 28 -20 -1 -34 -26 -11 -27 -14 -21 -71 7
-66 -4 -78 -38 -40 -10 11 -24 20 -32 20 -8 0 -13 12 -13 34 0 25 -6 38 -25
50 -27 18 -34 56 -10 56 20 0 19 9 -5 63 -22 48 -18 79 9 75 13 -3 16 7 16 57
0 49 3 60 18 63 9 2 17 -2 17 -10 1 -21 30 23 30 45 0 14 6 18 28 15 24 -3 27
-7 27 -44z m-3509 -109 c43 -85 48 -104 52 -178 3 -61 0 -93 -13 -127 -9 -25
-25 -66 -35 -93 -9 -26 -19 -49 -21 -52 -3 -2 -6 26 -7 62 -1 37 -13 107 -28
157 -22 74 -25 100 -19 150 3 34 6 87 5 119 -1 33 3 57 9 57 6 0 31 -43 57
-95z m3659 -128 c1 -15 6 -32 13 -39 20 -20 14 -37 -19 -53 -26 -14 -29 -20
-24 -45 5 -23 2 -32 -19 -45 -32 -21 -41 -48 -24 -74 11 -18 9 -24 -14 -48
-19 -20 -26 -35 -22 -50 7 -26 -10 -38 -26 -18 -7 8 -19 15 -26 15 -11 0 -13
8 -8 28 4 15 7 29 6 32 0 24 -5 30 -22 30 -22 0 -23 1 -14 24 3 9 15 16 25 16
27 0 33 22 19 64 -14 43 -6 72 20 79 13 3 20 14 20 29 0 12 3 33 6 46 6 19 11
22 35 17 22 -5 31 -2 35 10 10 26 39 13 39 -18z m-3826 -32 c13 -20 41 -49 62
-66 52 -41 61 -78 57 -226 -2 -67 0 -119 3 -115 3 4 16 36 29 72 33 95 78 175
123 220 49 50 69 52 61 8 -21 -119 -39 -154 -116 -235 -32 -34 -65 -78 -73
-97 -16 -37 -18 -149 -5 -201 5 -18 6 2 3 50 -5 94 10 127 78 172 23 16 60 45
81 66 22 21 42 37 44 35 2 -2 -3 -22 -11 -43 -8 -22 -14 -53 -15 -70 0 -23
-13 -42 -59 -85 -50 -47 -60 -62 -70 -108 -6 -29 -11 -74 -11 -100 0 -26 -4
-53 -9 -61 -9 -13 -18 12 -58 154 -14 49 -50 104 -103 157 -32 31 -69 81 -83
110 -25 53 -45 138 -32 138 12 0 68 -41 108 -79 42 -39 64 -74 83 -136 7 -22
13 -32 13 -22 1 30 -46 162 -88 245 -42 83 -67 185 -57 227 8 33 16 32 45 -10z
m3441 -37 c6 -7 17 -22 25 -33 11 -16 16 -18 26 -7 32 31 66 -1 57 -54 -2 -15
3 -19 27 -19 27 0 30 -3 32 -35 1 -19 2 -42 2 -51 1 -9 11 -19 22 -22 12 -3
19 -11 17 -19 -19 -51 -19 -56 4 -60 21 -3 23 -7 21 -58 -2 -30 0 -71 3 -90
l6 -35 23 63 c13 35 31 72 40 83 19 20 45 26 45 9 0 -19 28 -10 44 15 32 49
86 55 86 10 0 -18 6 -24 27 -27 56 -6 33 -68 -25 -68 -19 0 -22 -4 -17 -20 8
-25 -20 -38 -46 -22 -28 18 -36 15 -42 -17 -4 -21 -16 -35 -39 -46 -18 -8 -41
-27 -51 -41 -24 -32 -36 -114 -26 -167 12 -61 11 -63 -16 -75 -15 -7 -25 -20
-25 -32 0 -11 -7 -20 -15 -20 -19 0 -19 9 0 34 28 37 10 106 -27 106 -5 0 0
15 11 34 23 37 27 95 10 129 -20 39 -72 87 -95 87 -30 0 -37 13 -20 35 13 17
16 16 59 -19 25 -20 55 -56 66 -79 20 -39 21 -40 21 -14 0 41 -25 94 -65 139
-27 29 -34 44 -29 63 5 21 2 25 -23 30 -48 11 -73 24 -73 39 0 8 5 16 12 18
23 8 -2 37 -43 49 -47 15 -58 32 -35 58 22 24 21 29 -14 61 -34 32 -36 42 -14
64 19 19 39 20 54 4z m70 -379 c12 -8 10 -10 -10 -5 -24 5 -24 4 -6 -9 11 -8
17 -18 13 -22 -11 -10 -57 15 -57 32 0 17 37 20 60 4z m-3527 -111 c35 -35 78
-89 96 -120 33 -59 80 -187 82 -222 0 -12 7 8 15 44 39 175 44 187 93 231 119
106 114 104 106 33 -10 -78 -16 -92 -79 -188 -82 -125 -138 -251 -135 -305 0
-9 5 0 11 19 17 60 67 102 94 79 13 -11 9 -18 -25 -53 -37 -38 -78 -112 -68
-123 3 -2 20 23 37 56 36 66 70 105 70 79 0 -9 -7 -21 -15 -28 -8 -7 -15 -25
-15 -41 0 -15 -5 -31 -10 -34 -6 -4 -22 -29 -35 -56 -14 -27 -27 -49 -30 -49
-3 0 -23 7 -45 16 -29 12 -40 22 -40 37 0 40 -40 105 -74 121 -19 9 -38 16
-44 16 -20 0 -92 61 -120 102 -28 41 -84 160 -78 166 5 4 219 -128 243 -150
26 -24 103 -174 104 -203 2 -39 17 28 18 79 1 46 -2 52 -43 92 -36 34 -42 45
-31 54 10 8 18 4 35 -20 12 -17 24 -29 27 -26 9 9 -37 74 -72 103 -50 42 -83
98 -95 161 -6 31 -16 68 -22 82 -22 50 -37 110 -28 110 6 0 38 -28 73 -62z
m-47 -108 c8 -30 19 -65 25 -78 30 -74 -11 -40 -51 42 -16 33 -30 55 -30 47 0
-8 16 -43 36 -79 32 -57 35 -66 21 -79 -20 -20 -30 -13 -66 50 -34 60 -61 152
-61 210 l0 38 55 -48 c46 -40 58 -57 71 -103z m3974 95 c8 -9 10 -28 5 -51 -5
-27 -2 -41 12 -56 18 -20 17 -21 -16 -49 -32 -26 -34 -31 -23 -54 15 -33 11
-40 -41 -66 -48 -25 -56 -34 -50 -59 3 -12 -2 -20 -15 -24 -32 -11 -47 -33
-33 -50 10 -12 7 -18 -13 -31 -14 -10 -26 -22 -26 -29 0 -6 -12 -24 -26 -41
-16 -19 -23 -23 -20 -12 16 51 16 64 2 76 -13 11 -13 17 -4 35 7 11 13 41 13
66 0 39 3 45 22 48 22 3 36 28 31 53 -2 7 9 19 24 26 24 12 26 16 16 43 -13
38 -4 63 20 56 15 -5 17 0 13 40 -4 50 11 76 31 56 17 -17 23 -15 36 13 13 29
24 31 42 10z m-360 -27 c11 -12 20 -32 20 -45 0 -18 5 -22 23 -20 17 1 23 -4
25 -25 2 -15 -4 -38 -13 -52 -18 -26 -13 -46 10 -46 28 0 34 -32 14 -72 -26
-51 -24 -68 6 -68 19 0 25 -5 25 -22 0 -13 -7 -32 -15 -42 -13 -17 -13 -21 2
-31 15 -12 15 -18 -6 -89 -25 -83 -23 -109 4 -54 8 18 30 50 48 70 l32 38 17
-30 17 -30 -29 0 c-41 0 -70 -40 -70 -96 0 -24 -4 -45 -10 -45 -13 -2 -17 -3
-65 -17 -39 -12 -40 -11 -90 36 -45 42 -46 43 -11 5 46 -50 44 -73 -8 -73 -32
0 -35 3 -38 33 -3 29 -7 32 -42 37 -49 6 -69 33 -41 54 20 15 19 16 -13 47
-41 38 -41 72 1 77 15 2 27 -1 27 -7 0 -18 31 -41 55 -41 17 0 26 -8 34 -30
11 -33 25 -39 35 -15 14 38 66 -8 66 -59 0 -40 17 -57 45 -45 19 7 16 11 -14
13 -8 1 -14 15 -16 39 -1 26 -11 47 -30 67 -25 26 -27 32 -16 58 10 25 10 35
-3 60 -21 41 -20 59 3 67 23 7 20 22 -16 75 -23 34 -23 34 -3 55 l20 21 -30
22 c-35 26 -39 57 -9 72 19 11 19 13 5 35 -43 65 4 127 54 73z m476 8 c3 -7
-2 -30 -10 -51 -20 -46 -20 -55 -2 -55 7 0 19 -7 26 -15 10 -12 6 -20 -24 -47
-39 -34 -45 -48 -21 -48 25 0 17 -28 -15 -52 -25 -18 -30 -27 -25 -48 5 -21 1
-29 -18 -37 -21 -10 -26 -8 -40 16 -15 26 -15 29 6 51 l22 24 -23 -18 c-31
-27 -38 -13 -12 24 14 20 21 41 18 59 -3 20 1 32 14 40 29 18 38 52 22 79 -16
24 -13 34 19 70 23 25 55 29 63 8z m-649 -62 c3 -8 -56 -44 -72 -44 -10 0 -4
37 7 48 15 15 60 12 65 -4z m-2940 -35 c18 -11 40 -33 47 -47 27 -54 -4 -82
-90 -82 -73 0 -89 -18 -52 -58 l23 -25 -24 13 c-22 11 -23 11 -19 -8 4 -16 2
-19 -10 -15 -9 4 -13 2 -9 -4 4 -6 -1 -21 -11 -33 -16 -20 -19 -20 -31 -6 -11
13 -9 20 8 45 12 16 24 43 27 60 9 43 21 50 99 53 68 3 70 4 73 31 4 32 -10
52 -53 79 -16 10 -26 18 -21 18 5 0 24 -9 43 -21z m3018 14 c-59 -15 -126 -47
-136 -65 -14 -26 14 -58 51 -58 32 0 80 -35 80 -58 0 -9 11 -40 24 -69 23 -48
23 -53 8 -65 -9 -7 -14 -8 -10 -4 4 5 0 15 -10 23 -11 10 -12 12 -2 8 8 -4 4
3 -10 15 -14 12 -19 18 -11 14 9 -4 12 -3 7 4 -10 16 -84 35 -112 28 -52 -13
-19 -56 42 -56 43 0 43 0 64 -57 17 -45 18 -58 8 -64 -18 -12 -28 -11 -29 1
-3 19 -5 25 -17 46 -6 12 -8 24 -5 28 3 3 1 6 -6 6 -7 0 -9 5 -6 10 3 6 -3 10
-15 10 -29 0 -76 26 -84 46 -11 30 13 44 76 44 43 0 60 4 64 15 9 23 -12 42
-61 54 -49 12 -81 48 -71 78 11 33 92 72 151 71 20 0 24 -2 10 -5z m-3040 -39
c19 -12 22 -18 12 -29 -7 -7 -16 -11 -21 -8 -4 3 -3 9 4 13 8 5 7 9 -5 13 -9
4 -13 3 -10 -3 3 -6 1 -10 -6 -10 -8 0 -7 -5 2 -17 12 -15 12 -16 -3 -10 -9 3
-18 2 -20 -2 -2 -5 -13 -12 -26 -16 -21 -6 -21 -4 10 39 18 24 34 45 36 45 1
1 14 -6 27 -15z m3042 -6 c-1 -13 2 -33 7 -45 6 -20 4 -23 -16 -23 -17 0 -19
3 -9 9 11 7 9 10 -7 15 -26 9 -39 45 -21 57 26 16 47 10 46 -13z m-3433 -150
c-4 -7 -3 -8 4 -4 15 9 34 -2 27 -14 -3 -5 -16 -4 -30 2 -14 6 -23 13 -21 15
2 3 -3 13 -12 22 -12 12 -21 15 -29 8 -9 -6 -13 -6 -13 1 0 6 8 15 18 21 13 8
22 4 40 -15 13 -13 20 -29 16 -36z m3460 33 c-5 -22 0 -37 15 -57 25 -32 27
-44 6 -44 -28 0 -57 106 -34 121 19 12 19 12 13 -20z m-3084 -1 c10 -6 11 -10
3 -10 -7 0 -12 -5 -10 -11 3 -18 -17 -21 -37 -6 -35 25 7 51 44 27z m3011 -16
c11 -14 10 -15 -11 -12 -13 1 -25 9 -28 16 -5 17 23 15 39 -4z m-2961 -44 c0
-5 -4 -10 -9 -10 -6 0 -13 5 -16 10 -3 6 1 10 9 10 9 0 16 -4 16 -10z m-33
-36 c3 -9 -2 -23 -12 -32 -17 -16 -17 -16 -11 2 4 11 0 29 -9 43 -16 24 -16
24 5 13 12 -6 24 -18 27 -26z m-61 -36 c19 -21 19 -21 0 -14 -16 5 -17 4 -6
-9 10 -12 10 -15 -4 -15 -10 0 -14 -4 -11 -10 3 -5 2 -10 -4 -10 -6 0 -8 -7
-5 -15 4 -8 1 -15 -6 -15 -6 0 -8 -4 -5 -10 3 -5 1 -10 -5 -10 -6 0 -8 -5 -5
-10 3 -6 -1 -13 -9 -16 -34 -13 -33 9 2 81 20 41 37 75 38 75 0 0 9 -10 20
-22z m-425 -175 c42 -43 91 -69 196 -103 46 -15 80 -29 77 -32 -3 -3 0 -9 7
-14 8 -4 10 -3 5 4 -12 19 23 14 60 -9 101 -62 102 -210 4 -293 -20 -16 -26
-26 -16 -26 8 0 23 11 34 25 11 14 24 25 28 25 4 0 3 -5 -4 -12 -14 -14 -16
-32 -2 -23 6 3 7 -1 4 -9 -4 -9 -1 -16 6 -16 9 0 6 -8 -6 -22 -19 -21 -19 -21
0 -14 16 5 17 4 6 -9 -10 -12 -10 -15 0 -15 15 0 -15 -37 -42 -51 -15 -8 -20
-5 -28 16 -9 25 -11 25 -39 10 -17 -8 -42 -32 -57 -52 -16 -21 -31 -42 -36
-47 -4 -5 -16 10 -27 33 -21 48 -19 50 -68 -51 -18 -38 -37 -68 -44 -68 -8 0
-7 5 2 17 12 15 12 16 -5 10 -16 -6 -17 -5 -6 8 7 8 9 15 5 15 -4 0 -1 7 6 17
13 15 12 15 -11 3 -23 -12 -24 -12 -11 3 7 10 10 17 5 17 -5 0 2 10 16 21 l25
20 -35 -17 -35 -17 20 23 c11 12 54 39 95 60 192 97 296 217 269 314 -10 37
-83 111 -100 100 -6 -4 -5 -11 3 -21 11 -14 10 -15 -10 -9 -13 5 -22 3 -22 -3
0 -6 6 -11 14 -11 8 0 18 -5 22 -11 4 -8 -1 -9 -17 -4 -18 5 -15 1 10 -15 35
-22 37 -39 3 -21 -36 19 -38 12 -3 -10 18 -11 31 -23 27 -26 -3 -3 -11 -1 -18
4 -7 5 -22 13 -33 17 -14 5 -11 -1 10 -18 l30 -25 -40 10 c-71 19 -207 87
-199 100 4 7 3 9 -3 6 -6 -4 -13 0 -17 8 -3 10 1 15 12 15 13 1 10 4 -8 15
-14 7 -25 17 -25 22 0 4 -4 14 -9 21 -7 12 -4 12 15 1 22 -11 23 -11 10 4 -7
10 -10 17 -6 17 4 0 2 7 -5 15 -11 13 -10 14 4 9 29 -11 17 3 -28 31 -53 33
-86 89 -86 141 l1 39 18 -53 c10 -29 34 -69 52 -89z m-21 84 c0 -18 -2 -19
-10 -7 -13 20 -13 43 0 35 6 -3 10 -16 10 -28z m510 -24 c-10 -30 -89 -174
-106 -192 -2 -2 -16 1 -30 8 l-26 11 49 58 c74 86 75 95 2 18 -55 -58 -68 -68
-88 -61 -25 8 -23 20 12 72 17 26 29 33 54 33 26 0 36 6 48 30 17 32 88 86 93
70 2 -5 -2 -27 -8 -47z m3393 43 c3 -8 -2 -20 -11 -28 -11 -9 -14 -10 -8 0 4
7 2 12 -4 12 -7 0 -14 -9 -17 -20 -7 -26 -20 -26 -28 1 -11 35 55 69 68 35z
m-3886 -28 c-3 -8 -6 -5 -6 6 -1 11 2 17 5 13 3 -3 4 -12 1 -19z m93 -34 c0
-14 9 -37 20 -51 22 -28 25 -43 10 -43 -14 0 -40 55 -40 86 0 15 -3 24 -7 20
-8 -8 -9 -13 -12 -41 -1 -17 -27 -10 -35 11 -10 25 5 44 35 44 25 0 29 -4 29
-26z m3754 -80 c6 -16 -9 -44 -24 -44 -5 0 -11 8 -13 18 -4 13 -5 11 -6 -5 -1
-28 -31 -31 -31 -4 0 41 61 70 74 35z m-3339 -109 c-6 -55 -39 -120 -55 -110
-15 10 -12 37 10 80 11 22 20 46 19 55 0 8 -8 -5 -17 -30 -20 -51 -42 -58 -56
-17 -9 24 -7 30 9 39 10 6 35 26 54 44 34 31 36 32 39 12 2 -12 1 -45 -3 -73z
m-465 -59 c41 -33 76 -60 77 -61 5 -2 51 -175 57 -212 5 -35 3 -43 -9 -43 -8
0 -15 6 -15 14 0 7 -13 40 -30 72 -16 32 -30 64 -30 71 0 19 -30 43 -55 43
-28 0 -64 46 -105 132 -52 109 -43 107 110 -16z m3410 38 c0 -9 11 -11 38 -7
l37 5 -37 -37 c-21 -20 -43 -55 -50 -76 -16 -54 -33 -44 -33 19 -1 29 -6 57
-13 64 -34 34 5 92 40 61 10 -9 18 -22 18 -29z m416 -110 c-3 -9 -6 -27 -6
-41 0 -25 -1 -25 -18 -10 -42 38 -67 8 -55 -65 5 -34 3 -38 -15 -38 -13 0 -24
-10 -30 -27 -10 -27 -10 -26 -11 13 -1 41 -22 66 -36 43 -10 -16 -25 0 -25 27
0 17 8 27 26 34 43 17 53 12 57 -27 l4 -38 1 41 c2 38 6 44 50 73 53 35 67 38
58 15z m-3613 -33 c6 -6 1 -21 -17 -41 -14 -17 -29 -49 -32 -71 -10 -58 -21
-36 -29 55 l-7 79 38 -6 c20 -4 42 -11 47 -16z m72 -21 c3 -6 -11 -31 -31 -58
l-37 -47 36 38 c37 38 57 47 57 24 0 -24 -32 -59 -86 -93 -29 -19 -56 -34 -59
-34 -10 0 -5 22 16 81 15 42 31 64 53 79 35 23 42 24 51 10z m-245 -34 c0 -7
14 -43 30 -79 17 -37 30 -73 30 -82 0 -30 -15 -14 -31 33 -9 26 -22 63 -29 82
-7 19 -15 42 -18 50 -4 9 -7 5 -10 -12 -3 -24 -6 -27 -23 -18 -23 13 -24 24
-3 44 17 18 54 6 54 -18z m3581 -24 c8 -41 15 -48 32 -34 8 7 17 9 20 5 10 -9
8 -93 -1 -93 -16 0 -121 148 -109 154 30 12 51 0 58 -32z m-6 -81 c-11 -10
-80 57 -83 80 -2 21 4 17 43 -25 24 -28 42 -52 40 -55z m403 17 c17 -17 15
-63 -3 -78 -18 -15 -20 -47 -4 -52 23 -8 -2 -49 -32 -55 -29 -6 -39 -27 -16
-37 8 -3 6 -9 -7 -20 -26 -21 -43 -20 -51 3 -3 11 -15 23 -25 26 -20 6 -60 51
-60 66 0 5 13 9 29 9 25 0 30 5 36 33 9 39 22 57 44 57 9 0 25 14 34 30 19 32
36 37 55 18z m-3552 -25 c-3 -10 -8 -31 -12 -48 -16 -71 -72 -145 -121 -160
-20 -5 -23 -3 -23 18 0 18 8 28 29 37 28 11 82 60 67 60 -4 0 -25 -14 -46 -31
-21 -17 -44 -29 -51 -27 -8 3 0 12 18 23 18 10 53 47 78 82 45 61 72 81 61 46z
m2962 -67 c48 -73 56 -111 20 -101 -34 11 -43 22 -29 39 16 19 8 32 -30 51
-28 15 -40 51 -22 68 12 13 19 7 61 -57z m-3144 -73 c14 -84 -26 -263 -65
-299 -21 -19 -21 -18 -15 16 3 19 10 71 16 115 6 44 13 94 15 110 5 27 4 28
-5 7 -5 -13 -16 -73 -24 -134 -8 -61 -16 -112 -18 -114 -2 -2 -10 41 -16 96
-15 113 -8 139 48 203 41 47 57 47 64 0z m3278 10 c10 -9 18 -27 18 -40 0 -26
3 -27 30 -13 22 12 33 -9 24 -46 -3 -13 -1 -31 6 -39 6 -8 9 -19 5 -25 -4 -6
-1 -25 5 -41 11 -25 10 -32 -4 -48 -16 -18 -16 -21 -1 -52 16 -31 16 -33 -1
-46 -15 -11 -20 -10 -33 1 -9 8 -25 16 -36 18 -15 3 -20 11 -19 36 2 25 -4 37
-27 53 -32 22 -38 46 -14 55 23 9 18 40 -10 58 -27 18 -34 56 -10 56 18 0 19
14 3 39 -26 42 25 70 64 34z m-3422 -119 c0 -23 4 -54 9 -70 5 -16 11 -50 14
-76 4 -45 3 -48 -19 -48 -16 0 -24 6 -25 18 -1 16 -2 16 -6 0 -6 -25 -30 -22
-44 4 -15 27 -6 135 16 207 l17 55 19 -25 c11 -14 19 -41 19 -65z m3610 -14
c4 -27 10 -36 28 -38 28 -4 30 -42 2 -67 -19 -17 -19 -18 2 -35 21 -17 21 -18
5 -44 -10 -14 -22 -26 -28 -26 -8 0 -8 -5 1 -15 14 -17 7 -31 -20 -38 -19 -5
-20 0 -22 106 l-2 112 -3 -105 c-4 -106 -9 -120 -45 -120 -23 0 -23 28 -1 52
15 17 15 19 0 36 -21 23 -22 62 -2 62 17 0 21 35 5 45 -18 11 -11 47 10 52 12
3 20 14 20 27 0 51 43 47 50 -4z m-3700 -19 c0 -5 -13 -19 -29 -30 -47 -33
-91 -108 -91 -154 0 -31 7 -45 31 -68 28 -27 97 -54 108 -44 2 3 -2 5 -10 5
-12 0 -11 2 1 11 12 8 8 9 -15 5 -16 -3 -24 -3 -16 1 11 5 11 7 0 15 -9 6 -4
7 16 3 17 -3 24 -2 16 1 -11 5 -11 8 0 16 9 6 4 7 -16 4 l-30 -6 28 12 27 12
-27 12 c-27 12 -27 12 12 8 22 -2 31 -1 20 2 -11 3 -24 10 -30 15 -24 23 225
-30 283 -60 75 -39 112 -97 112 -177 0 -43 -28 -115 -50 -129 -5 -3 -15 -16
-21 -28 -9 -18 -5 -16 21 8 l32 30 -12 -27 c-10 -20 -10 -34 -1 -59 6 -17 11
-40 11 -51 0 -17 -2 -18 -30 -3 -40 21 -43 19 -25 -16 9 -17 14 -34 10 -37
-10 -10 -43 38 -56 80 -11 36 -10 39 24 77 71 79 97 176 65 246 -12 27 -112
95 -138 95 -8 -1 2 -10 23 -21 46 -24 47 -31 5 -18 -46 13 -48 11 -8 -11 32
-18 32 -19 8 -14 -16 3 -28 4 -28 0 0 -3 12 -12 28 -21 l27 -15 -30 6 -30 7
25 -22 c21 -18 22 -20 5 -15 -20 6 -20 5 -1 -10 11 -9 14 -16 7 -16 -7 0 -9
-4 -6 -10 3 -5 2 -10 -4 -10 -5 0 -12 4 -16 9 -6 10 -131 52 -209 71 -71 16
-124 46 -147 83 -40 63 -5 161 79 221 39 28 52 32 52 17z m295 -157 c-6 -37
-28 -59 -49 -51 -12 5 -9 17 16 67 16 34 28 63 26 65 -3 3 -17 -22 -33 -55
-19 -40 -35 -60 -46 -60 -45 0 -24 55 44 122 l42 41 3 -49 c2 -27 1 -63 -3
-80z m3499 35 c59 -70 79 -149 53 -211 -22 -53 -53 -64 -202 -72 -71 -4 -149
-11 -172 -15 -57 -11 -55 4 2 18 25 6 45 14 45 17 0 3 -8 3 -17 1 -10 -3 -31
-8 -48 -11 -27 -5 -26 -3 10 15 l40 20 -35 -6 c-35 -5 -23 4 24 19 33 11 11
16 -24 6 -49 -14 -48 -5 2 14 l43 16 -40 -4 -40 -5 40 15 40 14 -44 -4 c-81
-8 -137 -75 -126 -150 8 -54 41 -131 87 -199 37 -55 38 -60 27 -95 -16 -51
-29 -63 -29 -26 0 38 -69 121 -93 111 -12 -4 -17 -17 -16 -39 l1 -33 7 30 c3
17 10 29 14 28 4 -2 12 -3 17 -3 6 0 10 -5 10 -11 0 -5 -4 -7 -10 -4 -6 3 -7
-1 -3 -10 4 -12 8 -13 13 -5 5 8 10 9 14 2 3 -6 -7 -16 -23 -23 -33 -15 -32
-33 7 -66 17 -14 23 -27 18 -38 -14 -37 -133 147 -120 187 l6 21 15 -24 14
-24 -6 30 c-5 29 -5 29 11 10 15 -19 15 -19 9 10 l-6 30 16 -25 15 -25 -5 30
-6 30 15 -25 c9 -15 15 -19 16 -10 0 10 9 4 25 -15 18 -22 14 -9 -17 52 -71
141 -61 225 34 274 34 18 68 24 164 29 92 5 131 11 163 27 22 11 41 17 41 12
0 -19 -5 -24 -20 -21 -8 1 -4 -4 9 -12 25 -14 36 -42 20 -52 -5 -3 -7 -10 -4
-15 3 -5 -2 -6 -12 -3 -11 4 -14 3 -7 -3 6 -4 10 -16 8 -25 -2 -19 11 -24 20
-9 4 5 0 12 -6 15 -7 3 -3 3 9 0 30 -7 57 45 50 93 -7 41 -44 118 -69 140 -10
9 -18 20 -18 25 0 17 19 7 44 -23z m-3959 -59 c11 -52 31 -85 65 -112 17 -12
50 -39 73 -58 23 -19 33 -25 23 -12 -23 26 -16 38 12 23 24 -13 48 -71 28 -71
-25 0 -132 71 -173 115 -42 46 -73 116 -73 168 l0 30 19 -24 c10 -13 22 -40
26 -59z m3637 38 c9 -7 18 -24 20 -38 2 -14 9 -24 16 -22 6 1 18 3 25 5 6 1
13 -10 15 -24 3 -24 0 -27 -45 -32 -26 -4 -58 -9 -70 -13 -28 -8 -31 13 -5 32
14 11 15 16 5 33 -16 26 -16 44 -1 59 15 15 20 15 40 0z m482 6 c22 -9 20 -40
-6 -74 l-22 -30 22 -20 c12 -12 22 -25 22 -29 0 -13 -23 -29 -53 -36 -33 -9
-43 -23 -28 -38 16 -16 13 -54 -5 -61 -9 -3 -33 -6 -54 -6 -45 0 -58 -14 -36
-39 20 -22 20 -30 -1 -53 -10 -11 -30 -18 -52 -18 -20 0 -41 -4 -46 -8 -18
-12 -43 -58 -53 -93 -7 -26 -13 -33 -28 -31 -10 2 -27 4 -36 5 -25 2 -23 12
13 61 24 34 32 58 37 112 5 52 11 69 22 69 9 0 14 -8 12 -20 -1 -11 -4 -36 -7
-55 -4 -33 -4 -32 10 9 17 50 32 71 52 71 10 0 6 -10 -12 -35 -15 -19 -25 -39
-23 -45 2 -6 18 10 36 35 18 26 47 52 66 60 49 21 84 67 92 123 3 26 13 55 22
65 8 9 12 20 9 23 -4 4 -9 -1 -13 -10 -8 -22 -24 -20 -24 3 0 11 9 22 19 26
11 3 23 15 26 26 7 20 14 23 39 13z m-4042 -244 c67 -1 157 -69 218 -166 62
-98 32 -98 -46 0 -22 28 -70 70 -105 94 -48 32 -54 35 -24 10 22 -18 72 -66
111 -107 39 -41 80 -75 90 -76 11 0 25 -5 32 -9 14 -9 -26 67 -95 180 -37 61
-53 104 -39 104 17 0 36 -15 37 -29 0 -10 2 -11 6 -3 2 6 10 12 17 12 9 0 15
-20 19 -58 2 -32 14 -76 25 -98 25 -46 28 -34 7 26 -15 43 -20 102 -9 112 6 7
64 -20 64 -29 0 -4 -5 -34 -11 -68 -7 -41 -7 -73 -1 -96 l10 -34 1 30 c1 17
10 50 22 74 11 25 18 50 15 57 -3 7 3 23 13 35 19 24 55 20 65 -7 8 -21 -1
-33 -30 -44 -56 -22 -81 -120 -50 -194 8 -19 41 -70 73 -113 74 -97 85 -114
58 -93 -11 8 -42 38 -70 66 -56 56 -109 79 -210 89 -134 13 -145 16 -181 47
-42 37 -96 135 -69 124 9 -3 36 -6 60 -6 34 0 53 -7 90 -35 25 -20 76 -48 113
-62 64 -26 66 -28 37 -34 -21 -5 -24 -7 -9 -8 12 0 41 -8 64 -16 71 -25 30 9
-64 55 -162 77 -306 208 -306 278 0 24 1 24 25 8 13 -9 35 -16 47 -16z m483
-182 l-16 -33 21 25 c21 24 22 20 3 -27 -6 -15 -4 -16 9 -5 13 10 16 9 21 -8
7 -25 -7 -34 -23 -15 -7 8 -18 15 -25 15 -24 0 -25 31 -3 60 28 38 34 32 13
-12z m52 -130 c43 -46 51 -60 57 -103 3 -27 8 -59 11 -70 5 -16 1 -21 -14 -22
-20 -2 -81 77 -95 124 -12 38 -23 123 -17 123 4 0 30 -24 58 -52z m2775 -4 c9
-19 9 -33 1 -55 -11 -27 -10 -31 13 -39 32 -13 30 -26 -11 -67 -40 -40 -44
-53 -16 -53 30 0 35 -19 12 -44 -16 -17 -29 -21 -57 -18 -19 2 -38 10 -41 18
-3 7 7 39 21 70 15 31 25 59 23 61 -5 4 -57 -111 -57 -126 0 -6 -16 -11 -36
-11 -35 0 -35 1 -32 38 2 30 7 38 26 40 21 3 22 7 16 48 -8 53 7 77 42 68 20
-5 24 -1 30 33 12 66 45 85 66 37z m-2834 -65 c19 -35 41 -77 49 -92 23 -42 5
-47 -28 -7 -37 44 -64 96 -72 138 -10 52 12 35 51 -39z m190 9 c39 -51 92
-148 92 -167 0 -17 -42 2 -50 23 -7 17 -9 18 -9 4 -1 -22 -20 -23 -48 -3 -13
9 -25 34 -32 65 -13 61 -14 130 -2 130 5 0 27 -24 49 -52z m-412 -25 c-10 -36
10 -79 48 -102 24 -15 65 -22 187 -30 86 -6 182 -18 213 -26 31 -8 60 -16 64
-16 4 -1 -6 -5 -23 -9 l-30 -8 35 -1 c19 -1 42 -6 50 -12 11 -8 5 -9 -23 -4
-27 4 -37 3 -32 -4 3 -6 16 -12 28 -12 14 -1 9 -4 -13 -9 l-35 -7 30 -3 30 -3
-35 -7 c-29 -6 -31 -8 -10 -9 23 -2 24 -3 5 -11 -16 -7 -12 -9 20 -11 l40 -2
-45 -7 -45 -7 40 -3 c39 -2 39 -3 10 -9 -28 -7 -27 -8 20 -15 101 -16 155 -67
155 -147 0 -51 -22 -119 -38 -119 -15 0 -72 68 -72 85 0 8 -4 15 -9 15 -11 0
-2 38 11 46 6 4 7 -3 3 -17 -7 -23 -7 -24 9 -4 18 23 20 17 6 -19 -13 -34 -5
-33 15 2 l16 27 -6 -40 c-5 -40 -5 -40 10 -15 16 24 16 24 11 -20 -6 -41 -5
-43 9 -26 19 25 19 89 1 124 -39 74 -123 102 -313 102 -69 0 -113 4 -113 10 0
6 -8 10 -17 10 -15 0 -16 2 -3 10 12 8 12 10 -5 11 l-20 0 20 9 c16 7 17 9 3
9 -9 1 -20 6 -24 13 -4 6 -3 8 2 5 6 -3 16 -2 24 4 12 7 9 9 -10 9 -14 0 -32
5 -40 10 -11 7 -5 10 25 11 l40 2 -35 6 -35 7 30 11 30 11 -40 2 -40 2 40 13
40 12 -55 8 c-115 15 -170 55 -170 120 0 38 6 55 18 55 2 0 1 -12 -2 -27z
m-38 -21 c0 -22 2 -44 6 -50 9 -15 -9 -15 -37 -1 -34 18 -97 70 -97 80 0 5 29
9 65 9 l65 0 -2 -38z m63 -5 c-8 -8 -11 -7 -11 4 0 20 13 34 18 19 3 -7 -1
-17 -7 -23z m499 -18 c30 -71 37 -119 17 -119 -18 0 -42 58 -52 123 -10 63 7
61 35 -4z m-470 15 c0 -14 -4 -23 -9 -20 -5 3 -7 15 -4 26 7 28 13 25 13 -6z
m40 11 c4 3 6 -4 3 -16 -4 -16 -8 -17 -14 -7 -7 10 -9 8 -9 -6 0 -11 -3 -17
-6 -13 -4 3 -3 19 1 34 4 15 10 22 12 15 3 -6 8 -10 13 -7z m21 -38 c-8 -8
-11 -7 -11 4 0 20 13 34 18 19 3 -7 -1 -17 -7 -23z m68 -24 c26 -32 23 -36
-17 -22 -21 7 -32 18 -32 30 0 27 25 23 49 -8z m3221 -12 c0 -51 -61 -97 -178
-135 -51 -17 -62 -37 -19 -35 21 0 21 1 2 9 -23 10 -5 13 19 4 21 -8 10 -24
-17 -25 -20 -1 -20 -2 3 -9 25 -8 25 -8 -5 -10 -24 -2 -26 -4 -7 -7 28 -6 28
-21 0 -32 l-23 -8 23 -7 c33 -11 18 -23 -45 -36 -44 -9 -78 -9 -152 0 -53 7
-105 16 -116 21 -18 7 -18 8 5 10 24 1 23 2 -5 9 l-30 8 28 1 c35 1 26 21 -11
22 -27 1 -27 1 3 8 l30 7 -25 8 -25 8 25 8 c21 7 19 8 -20 11 l-45 2 45 7 45
7 -45 3 c-39 3 -41 4 -12 7 35 5 42 18 15 27 -10 3 25 2 77 -2 168 -12 258 -7
325 18 75 29 115 67 115 110 0 18 4 29 10 25 6 -3 10 -19 10 -34z m194 17 c4
-17 -2 -29 -24 -46 -22 -18 -29 -29 -24 -46 7 -31 -26 -57 -81 -64 -26 -2 -49
-11 -52 -18 -8 -21 -23 -17 -23 5 0 11 8 22 18 25 10 3 42 32 72 63 l55 57
-52 -47 c-51 -46 -128 -87 -161 -87 -11 1 1 17 35 48 28 26 59 62 67 80 18 35
40 41 54 15 9 -15 13 -14 42 10 39 33 66 35 74 5z m-224 -13 c0 -8 -4 -17 -10
-20 -6 -4 -10 5 -10 20 0 15 4 24 10 20 6 -3 10 -12 10 -20z m-30 -18 c0 -18
-2 -19 -10 -7 -13 20 -13 43 0 35 6 -3 10 -16 10 -28z m-3354 -12 c45 -17 107
-73 69 -62 -11 3 -44 15 -72 26 -29 12 -53 18 -53 16 0 -8 122 -65 138 -65 11
0 15 -11 10 -27 -4 -11 -48 -3 -95 17 -40 17 -143 104 -143 120 0 10 97 -7
146 -25z m3328 19 c11 -28 6 -39 -9 -20 -8 11 -15 23 -15 28 0 14 18 9 24 -8z
m-26 -39 c-3 -3 -9 2 -12 12 -6 14 -5 15 5 6 7 -7 10 -15 7 -18z m82 -130 c12
-31 13 -31 45 -1 24 22 55 26 55 6 0 -4 11 -5 24 -3 13 3 27 0 31 -7 11 -18
-3 -58 -25 -65 -11 -3 -17 -12 -14 -20 3 -7 -4 -19 -16 -25 -17 -9 -26 -8 -45
4 -33 22 -52 20 -58 -5 -6 -22 -27 -23 -94 -3 -18 5 -23 1 -28 -19 -8 -32 -27
-39 -82 -31 -66 10 -128 -4 -181 -39 -26 -18 -70 -41 -97 -52 l-50 -19 54 -8
c45 -7 61 -5 91 11 24 12 41 16 47 10 6 -6 21 -4 41 8 30 17 31 17 50 -7 l19
-23 35 26 c41 32 46 32 70 10 17 -15 19 -15 38 2 30 27 54 12 46 -28 -4 -17
-8 -42 -9 -55 -3 -29 -33 -48 -51 -33 -10 8 -18 6 -31 -9 -25 -28 -63 -25 -93
7 l-25 27 -10 -22 c-13 -29 -33 -28 -63 6 -22 25 -25 26 -35 10 -16 -28 -53
-21 -100 18 -43 36 -45 36 -114 32 -45 -3 -85 -13 -112 -27 -24 -12 -43 -23
-43 -25 0 -2 34 -2 75 0 72 4 75 3 75 -18 0 -21 0 -21 14 -2 12 15 18 17 33 8
33 -21 21 -39 -26 -39 -31 -1 -47 4 -55 17 -18 30 -93 24 -150 -12 -45 -29
-49 -30 -61 -13 -12 16 -10 20 24 34 21 10 40 26 43 36 3 13 29 30 74 48 38
16 81 37 96 48 35 23 46 62 25 85 -15 17 -14 19 13 29 35 13 36 11 16 -65 -14
-56 -10 -64 19 -32 14 15 16 29 12 65 -5 36 -4 45 8 45 9 0 16 -10 16 -22 1
-17 2 -19 6 -5 5 19 43 24 43 4 0 -15 -27 -57 -48 -74 -14 -12 -14 -13 2 -13
9 0 38 20 64 44 l47 43 77 0 c67 0 85 4 142 32 36 18 66 39 66 46 0 12 15 14
78 10 l77 -4 -82 11 c-46 5 -83 14 -83 18 0 12 50 50 67 50 7 0 18 -11 23 -25z
m-3272 -11 c15 -26 3 -54 -23 -54 -12 0 -42 7 -65 15 -56 20 -63 12 -9 -9 32
-13 86 -18 223 -22 l181 -5 37 -36 c40 -39 53 -36 16 4 l-21 23 39 0 39 0 2
-44 c3 -87 93 -207 176 -235 l32 -11 -31 28 c-18 15 -30 33 -27 40 8 21 20 13
58 -38 20 -27 42 -50 48 -50 6 0 -1 12 -15 28 -14 15 -32 38 -41 52 -18 26
-23 110 -7 110 5 0 28 -39 51 -87 25 -50 62 -108 88 -135 50 -53 47 -60 -8
-26 -32 21 -146 68 -286 119 -62 23 -83 23 -223 3 -127 -18 -153 -15 -281 38
-82 34 -80 42 14 51 33 3 78 15 100 26 73 39 189 19 324 -54 36 -19 66 -33 68
-32 1 2 -21 21 -50 43 -66 48 -135 124 -115 124 9 0 32 -14 53 -30 21 -17 40
-28 43 -25 10 9 -31 45 -79 68 -43 22 -52 23 -106 14 -32 -6 -96 -11 -143 -12
-76 0 -92 4 -155 33 -38 18 -83 45 -98 60 l-29 27 49 6 c102 12 161 10 171 -7z
m671 -57 c16 -29 42 -64 56 -77 34 -31 67 -97 90 -175 9 -33 28 -79 41 -102
14 -22 21 -44 16 -47 -12 -7 -45 29 -70 79 -12 22 -21 34 -22 27 0 -19 19 -53
47 -84 l25 -26 -23 -7 c-19 -6 -30 0 -64 38 -23 25 -50 67 -60 94 -9 26 -31
73 -48 103 -27 48 -32 67 -35 149 -5 106 0 109 47 28z m2055 11 c9 -12 16 -30
16 -40 0 -20 -38 -34 -52 -20 -20 20 -107 -37 -120 -78 -3 -8 -1 -27 3 -42 11
-38 -6 -44 -21 -8 -24 59 31 138 99 143 17 1 21 8 21 34 0 26 4 33 19 33 11 0
27 -10 35 -22z m-84 -181 c0 -5 -4 -5 -10 -2 -5 3 -10 14 -10 23 0 15 2 15 10
2 5 -8 10 -19 10 -23z m24 17 c5 -14 4 -15 -9 -4 -17 14 -19 20 -6 20 5 0 12
-7 15 -16z m-54 -19 c0 -8 -4 -15 -10 -15 -5 0 -10 7 -10 15 0 8 5 15 10 15 6
0 10 -7 10 -15z m-1539 -60 c19 -14 47 -33 63 -42 64 -39 137 -115 123 -129
-3 -3 -21 6 -42 20 -23 16 -58 28 -95 32 -58 6 -59 7 -78 53 -42 100 -36 114
29 66z m1692 -37 c27 -32 20 -41 -14 -16 -25 19 -42 23 -87 21 -58 -3 -63 12
-7 20 47 7 88 -3 108 -25z m57 -47 c-1 -107 -129 -201 -280 -204 -32 -1 -58
-3 -56 -4 1 -1 20 -7 42 -13 l39 -10 -38 5 c-34 3 -36 2 -27 -16 7 -12 22 -19
43 -20 l32 -1 -30 -8 -30 -8 35 -2 35 -3 -35 -5 -35 -4 35 -14 c33 -13 33 -14
5 -9 -22 4 -26 3 -15 -5 8 -5 24 -10 35 -10 18 -1 18 -2 -3 -10 -33 -14 -107
5 -263 66 -75 30 -160 59 -190 66 -51 12 -52 13 -24 19 28 6 28 7 5 8 -19 1
-26 7 -27 22 -2 19 2 20 35 15 27 -5 33 -4 22 3 -8 6 -31 11 -50 12 l-35 1 30
8 30 8 -30 2 c-25 3 -23 4 15 10 44 7 44 7 -19 8 -54 2 -69 -2 -97 -23 -40
-30 -48 -31 -33 -4 6 11 30 29 53 40 55 24 128 13 269 -40 166 -63 212 -74
283 -67 158 16 244 84 244 192 0 40 2 45 15 34 8 -7 15 -24 15 -39z m-2406
-86 c60 -92 178 -94 490 -9 89 24 181 44 205 44 42 0 121 -34 121 -52 0 -11 0
-11 -45 12 -26 13 -57 20 -90 19 l-50 -2 40 -7 40 -7 -42 -2 c-68 -2 -63 -29
5 -32 23 -1 22 -3 -8 -9 -29 -6 -31 -8 -10 -10 l25 -2 -25 -8 c-23 -7 -23 -8
10 -10 l35 -2 -40 -9 c-21 -5 -42 -13 -45 -18 -3 -4 -65 -36 -137 -70 -107
-50 -145 -64 -195 -68 -58 -4 -62 -3 -44 11 19 16 19 16 -5 17 -20 1 -18 3 11
11 l35 11 -39 12 c-31 9 -36 13 -22 18 10 4 27 8 39 8 14 1 9 4 -13 9 -35 7
-35 7 -5 9 17 1 37 6 45 12 11 8 7 9 -20 5 l-35 -5 38 17 38 17 -108 0 c-95 0
-114 3 -157 25 -28 14 -58 37 -69 51 -21 29 -33 99 -22 126 6 13 11 5 20 -34
6 -28 20 -63 29 -78z m-74 92 c0 -20 -13 -29 -77 -57 -42 -19 -71 -36 -64 -38
6 -2 38 9 69 24 31 15 60 30 65 32 4 2 7 -6 7 -18 0 -14 -10 -25 -32 -34 -40
-16 -218 -30 -218 -17 0 10 79 51 97 51 6 0 33 18 59 40 56 46 94 53 94 17z
m84 -4 c-9 -39 -14 -41 -15 -7 0 25 -2 26 -9 9 -8 -19 -9 -19 -9 3 -1 16 5 22
19 22 17 0 19 -4 14 -27z m38 -30 c-10 -28 -10 -28 -12 -3 -1 23 -2 23 -10 5
-8 -19 -9 -19 -9 2 -1 12 2 29 5 38 6 15 8 15 22 2 11 -12 12 -21 4 -44z
m1574 15 c7 -23 -16 -48 -44 -48 -12 0 -12 3 -2 18 7 9 -6 -3 -29 -28 -38 -41
-42 -43 -57 -28 -20 20 -11 38 21 38 16 0 29 11 44 35 23 40 56 47 67 13z
m-1542 -13 c-4 -8 -8 -15 -10 -15 -2 0 -4 7 -4 15 0 8 4 15 10 15 5 0 7 -7 4
-15z m69 -2 c37 -19 23 -28 -28 -19 -24 5 -32 11 -28 21 7 19 17 19 56 -2z
m2044 -9 c4 -11 13 -14 29 -10 24 6 25 5 28 -36 1 -9 -24 -12 -89 -11 l-90 1
82 -7 c45 -4 86 -10 90 -15 10 -9 -33 -46 -54 -46 -8 0 -28 8 -45 17 -29 18
-29 18 -47 -6 -14 -18 -23 -22 -41 -16 -13 4 -30 14 -38 21 -7 8 -27 14 -43
14 -22 0 -29 5 -29 19 0 14 10 21 38 26 20 3 51 14 67 24 19 11 38 15 50 11
13 -5 28 -1 44 11 29 23 40 24 48 3z m130 -36 c-3 -7 -5 -2 -5 12 0 14 2 19 5
13 2 -7 2 -19 0 -25z m24 5 c-8 -15 -10 -15 -11 -2 0 17 10 32 18 25 2 -3 -1
-13 -7 -23z m-2226 -10 c-24 -17 -35 -17 -35 0 0 20 9 25 32 19 20 -5 20 -6 3
-19z m2172 -5 c-3 -7 -5 -2 -5 12 0 14 2 19 5 13 2 -7 2 -19 0 -25z m243 7 c8
-21 15 -24 47 -22 34 2 38 0 38 -23 0 -20 -7 -26 -37 -33 -23 -5 -38 -16 -41
-28 -7 -24 -28 -24 -77 1 -39 20 -40 20 -40 1 0 -41 -30 -44 -80 -8 -21 15
-23 19 -10 27 8 5 26 10 40 11 14 0 41 7 60 15 l35 13 -47 -5 c-27 -4 -48 -3
-48 2 0 17 34 44 55 44 13 0 36 7 51 15 39 20 43 19 54 -10z m-2247 -2 l32
-18 -30 -2 c-16 -2 -61 -10 -99 -19 -62 -14 -70 -14 -84 0 -14 14 -12 17 29
35 54 25 110 26 152 4z m1186 -47 c13 -11 34 -45 47 -73 25 -56 27 -57 118
-67 54 -7 76 -20 76 -45 0 -25 -36 -54 -117 -95 -40 -20 -78 -46 -84 -58 l-12
-23 23 20 c19 16 22 17 17 3 -7 -19 13 -19 37 1 14 12 16 11 10 -5 -4 -15 -1
-13 16 6 18 21 21 22 15 5 -5 -17 -3 -17 21 5 l28 25 -17 -27 c-11 -18 -17
-48 -17 -88 0 -33 -4 -60 -10 -60 -5 0 -10 10 -11 23 0 21 -1 21 -9 2 l-9 -20
-1 20 c-1 17 -3 17 -11 -5 -10 -23 -11 -24 -23 -8 -7 10 -16 15 -19 11 -4 -3
-7 1 -7 10 0 9 -3 18 -7 20 -5 3 -6 -15 -4 -40 4 -56 -15 -79 -74 -88 -58 -8
-82 6 -91 53 -3 20 -15 52 -25 70 -19 33 -12 44 11 17 15 -19 45 -4 45 22 0
27 33 28 44 1 20 -50 38 -118 31 -118 -4 0 -11 8 -15 18 -6 16 -7 16 -17 -2
-11 -19 -11 -19 -24 -1 -13 17 -14 17 -14 1 0 -9 -4 -14 -10 -11 -15 9 -12 -2
6 -19 22 -22 77 -20 98 3 20 22 21 37 10 128 -8 76 -3 85 81 124 76 37 123 74
110 87 -5 6 -39 13 -75 16 l-65 6 40 -19 c24 -12 33 -20 22 -20 -10 -1 -27 4
-38 9 -24 14 -26 -5 -1 -19 10 -6 12 -11 4 -11 -7 0 -10 -4 -7 -10 8 -13 -1
-13 -27 1 -15 8 -19 8 -14 0 4 -6 5 -11 2 -11 -2 0 -11 -3 -20 -6 -12 -4 -23
11 -47 59 -32 68 -48 82 -82 71 -13 -4 -17 -2 -13 5 4 6 19 11 34 11 26 1 27
1 7 16 -19 16 -19 16 5 9 l25 -6 -25 20 c-26 22 -13 28 21 11 32 -18 21 -1
-13 20 -18 11 -27 20 -20 20 18 0 52 -18 81 -44 l24 -21 -12 23 c-35 68 -141
78 -170 16 -16 -37 -14 -64 14 -132 34 -85 33 -135 -4 -173 -17 -16 -40 -29
-53 -28 l-23 0 25 10 c32 13 45 35 45 81 l1 37 -25 -22 -25 -22 18 29 c10 16
14 26 8 22 -5 -3 -10 17 -11 50 0 31 -3 60 -6 64 -10 16 13 92 35 115 36 38
107 39 149 1z m-776 17 c-13 -2 -33 -2 -45 0 -13 2 -3 4 22 4 25 0 35 -2 23
-4z m170 -15 c-30 -34 -41 -57 -16 -35 32 28 36 20 12 -20 l-22 -38 24 23 c34
30 44 28 21 -5 -14 -21 -17 -31 -8 -39 8 -9 17 -7 34 9 12 11 22 15 22 9 0 -7
7 -9 18 -5 9 3 -1 -13 -23 -36 -52 -55 -34 -53 26 4 26 25 53 45 58 45 16 0
33 -40 27 -63 -10 -40 5 -79 38 -93 24 -10 27 -13 10 -14 -29 0 -37 -11 -17
-25 15 -11 15 -13 -5 -19 -12 -4 -20 -12 -17 -17 4 -5 0 -9 -7 -9 -9 0 -9 -3
2 -10 13 -8 12 -10 -3 -10 -50 0 -117 51 -117 90 0 9 9 2 20 -15 l20 -30 -6
35 -5 35 16 -25 c15 -25 15 -25 10 15 l-6 40 15 -30 16 -30 -6 45 c-6 45 8 49
19 5 3 -11 5 3 6 32 0 28 -4 55 -10 59 -6 3 -25 -7 -42 -24 -43 -41 -84 -60
-146 -68 -52 -7 -81 -24 -81 -48 0 -7 18 -42 40 -78 22 -36 44 -86 49 -109 16
-72 72 -98 109 -51 20 27 14 40 -18 37 -16 -1 -30 2 -30 7 0 5 -3 7 -7 5 -5
-3 -8 18 -8 46 1 50 3 53 35 48 5 0 6 -9 3 -19 -6 -15 -5 -15 10 -3 15 12 17
12 11 -4 -5 -13 -4 -16 4 -11 7 4 12 2 12 -6 0 -7 7 -2 16 10 8 12 22 22 31
22 15 0 15 -2 0 -18 -9 -10 -21 -42 -27 -72 -13 -68 -24 -80 -71 -80 -48 0
-76 25 -84 77 -4 21 -9 47 -13 58 -5 18 -6 18 -13 -5 -4 -15 -7 -18 -8 -8 -1
9 -6 20 -11 23 -7 4 -8 -3 -4 -21 5 -19 4 -25 -5 -20 -6 4 -11 13 -11 21 0 8
-5 17 -11 21 -8 4 -9 -1 -4 -17 l6 -24 -19 24 -20 25 5 -30 4 -29 -16 25 -16
25 5 -24 c6 -31 -8 -15 -22 24 -6 17 -22 57 -36 90 -39 92 -37 98 45 141 57
30 78 48 110 95 37 55 73 89 93 89 5 0 0 -10 -11 -22z m-568 3 c15 -6 11 -9
-20 -14 -58 -10 -101 -9 -89 2 17 17 79 24 109 12z m-347 -18 c-9 -10 -18 -26
-19 -36 -2 -10 -8 -18 -14 -17 -5 1 -9 8 -7 17 2 9 -2 13 -10 11 -7 -3 -12
-13 -10 -23 2 -11 -2 -15 -10 -13 -7 3 -13 16 -13 29 0 19 8 27 35 36 53 18
66 17 48 -4z m107 -53 c3 -6 -2 -10 -12 -11 -15 0 -15 -2 3 -9 12 -4 24 -15
27 -23 4 -12 -11 -17 -74 -27 -44 -7 -83 -10 -86 -6 -3 3 17 29 45 57 44 43
53 49 71 40 11 -6 23 -16 26 -21z m865 -3 c0 -2 -10 -12 -22 -23 l-23 -19 19
23 c18 21 26 27 26 19z m-259 -43 c10 -13 10 -17 -2 -25 -20 -13 -41 -11 -64
7 -17 13 -18 16 -5 24 23 15 56 12 71 -6z m1052 7 c14 -5 36 -21 50 -35 19
-19 37 -26 65 -26 32 0 41 -5 50 -25 12 -27 31 -32 50 -13 16 16 60 -5 59 -29
-1 -12 3 -17 13 -14 8 2 26 5 40 5 21 1 25 -3 25 -27 -1 -22 5 -29 29 -35 43
-11 55 -36 31 -62 -16 -18 -27 -21 -57 -16 -22 4 -46 1 -57 -5 -26 -17 -47 -6
-54 30 -9 41 -32 49 -56 20 -16 -20 -21 -21 -35 -10 -9 7 -16 21 -16 30 0 10
-7 26 -15 37 -15 18 -15 18 -29 1 -26 -34 -50 -17 -56 38 -10 86 -37 115 -109
115 -42 0 -64 15 -34 23 32 8 81 7 106 -2z m430 -18 c-7 -2 -21 -2 -30 0 -10
3 -4 5 12 5 17 0 24 -2 18 -5z m-745 -51 l-23 -26 30 23 c39 30 44 12 7 -27
l-29 -31 -16 34 c-9 19 -14 41 -11 49 7 19 35 25 52 13 10 -8 8 -15 -10 -35z
m-813 28 c3 -5 -1 -10 -11 -10 -9 0 -49 -16 -88 -36 -103 -53 -171 -74 -238
-74 -69 0 -193 29 -180 42 11 11 86 12 149 0 74 -13 140 0 230 46 78 40 126
51 138 32z m1730 -11 c15 -23 -5 -58 -38 -67 -29 -8 -32 -12 -29 -40 4 -38 -9
-41 -62 -15 -32 15 -37 15 -53 2 -25 -22 -55 -13 -51 14 2 18 12 23 53 29 74
10 135 36 135 57 0 30 31 44 45 20z m-1732 -44 c-3 -13 -14 -27 -25 -31 -11
-3 -43 -25 -71 -48 -29 -23 -63 -49 -77 -59 -13 -9 -19 -17 -13 -17 6 0 37 21
69 46 33 25 71 52 87 60 25 13 27 13 27 -3 0 -58 -84 -118 -198 -142 -98 -20
-100 -18 -47 47 68 81 101 109 170 143 73 36 84 36 78 4z m592 -24 c-3 -12 0
-18 10 -18 8 0 15 5 15 11 0 6 5 4 10 -4 8 -12 10 -12 10 5 1 18 2 17 15 -5
18 -32 19 -72 1 -115 -17 -39 -21 -42 -30 -19 -4 10 -2 13 7 8 9 -6 9 -5 0 8
-7 8 -9 18 -5 23 4 4 -15 -7 -42 -24 -54 -34 -91 -40 -100 -16 -4 10 1 15 15
15 35 0 58 19 64 54 8 41 -8 76 -36 76 -11 0 -17 5 -14 10 7 12 43 9 64 -4 11
-7 13 -5 8 8 -4 10 -3 15 4 11 5 -4 7 -15 4 -24z m289 -6 c15 -23 15 -25 -2
-33 -9 -6 -32 -13 -49 -17 -28 -5 -33 -4 -33 12 0 13 52 63 66 63 1 0 9 -11
18 -25z m-576 -13 c2 -8 -11 -12 -42 -12 -56 0 -70 17 -19 23 49 5 56 3 61
-11z m852 -17 c0 -14 -4 -25 -10 -25 -11 0 -14 33 -3 43 11 11 13 8 13 -18z
m-1371 -20 c-30 -30 -241 -86 -258 -69 -3 3 8 17 24 31 25 20 38 24 80 20 33
-3 67 2 100 14 63 22 73 23 54 4z m951 6 c0 -5 -7 -12 -16 -15 -14 -5 -15 -4
-4 9 14 17 20 19 20 6z m-420 -11 c0 -5 -8 -10 -17 -11 -20 -1 -34 -3 -75 -14
-40 -10 -36 12 5 24 44 13 87 13 87 1z m940 -76 c25 -24 49 -44 54 -44 4 0 -2
9 -15 20 l-24 19 28 1 c19 0 30 7 35 21 7 19 9 19 21 5 12 -14 11 -19 -1 -34
-10 -11 -14 -29 -11 -49 5 -30 3 -33 -21 -33 -15 0 -29 7 -32 15 -4 9 -19 15
-35 15 -25 0 -29 4 -29 29 0 60 -24 80 -48 41 -22 -36 -33 -26 -56 47 l-7 22
48 -16 c29 -9 66 -33 93 -59z m0 38 c0 -24 -1 -25 -16 -10 -10 9 -14 24 -10
33 9 23 26 9 26 -23z m-397 14 c15 -4 27 -11 27 -17 0 -7 -7 -8 -17 -4 -20 8
-42 13 -60 14 -7 1 -13 6 -13 12 0 6 8 8 18 6 9 -3 29 -8 45 -11z m-258 -56
c-10 -11 -22 -20 -28 -20 -5 0 1 9 14 20 31 25 37 25 14 0z m-541 -54 c-3 -9
-9 -16 -14 -16 -14 0 -49 -37 -42 -45 4 -5 -1 -5 -11 -2 -11 4 -16 3 -12 -3 9
-15 -21 -41 -39 -34 -24 9 -4 37 61 84 58 41 68 44 57 16z m1092 -37 l77 -62
-24 -18 c-27 -20 -41 -16 -32 8 4 11 3 14 -5 9 -7 -4 -12 -3 -12 1 0 14 -66
83 -79 83 -6 0 -11 2 -11 4 0 2 -3 11 -6 20 -11 29 14 17 92 -45z m-1208 -101
c3 -15 -4 -18 -35 -18 -21 0 -45 5 -53 10 -12 7 -10 11 10 19 36 15 74 9 78
-11z m1352 -3 c10 -12 8 -16 -15 -25 -56 -21 -101 -6 -75 25 16 19 74 19 90 0z"/>
<path d="M3886 4214 c-4 -14 -5 -28 -3 -31 3 -2 8 8 11 23 4 14 5 28 3 31 -3
2 -8 -8 -11 -23z"/>
<path d="M3873 4090 c0 -47 2 -66 4 -42 2 23 2 61 0 85 -2 23 -4 4 -4 -43z"/>
<path d="M423 4070 c0 -41 3 -104 7 -140 l7 -65 0 55 c1 30 -2 93 -6 140 l-8
85 0 -75z"/>
<path d="M4007 3932 c-26 -53 -47 -104 -47 -112 1 -8 11 10 24 40 12 30 35 79
50 108 15 30 26 56 23 58 -2 2 -25 -40 -50 -94z"/>
<path d="M260 4002 c0 -7 14 -41 32 -75 17 -34 42 -91 54 -127 13 -36 24 -58
24 -49 0 39 -108 288 -110 251z"/>
<path d="M496 3792 c-47 -80 -63 -121 -25 -67 24 36 81 145 75 145 -2 0 -25
-35 -50 -78z"/>
<path d="M225 3710 c16 -29 96 -140 102 -140 6 0 -19 41 -60 95 -37 49 -53 66
-42 45z"/>
<path d="M515 3582 c-58 -62 -75 -89 -73 -117 l0 -20 5 20 c3 11 26 45 52 75
63 75 74 90 70 93 -2 2 -26 -21 -54 -51z"/>
<path d="M3715 3940 c19 -35 95 -137 112 -151 21 -16 25 -22 -57 86 -56 75
-68 89 -55 65z"/>
<path d="M3859 3728 c21 -54 51 -112 51 -101 0 16 -47 123 -54 123 -3 0 -2
-10 3 -22z"/>
<path d="M4075 3629 c-38 -11 -79 -53 -94 -98 -20 -60 -11 -58 18 5 30 65 47
77 131 93 42 8 43 9 10 9 -19 0 -49 -4 -65 -9z"/>
<path d="M255 3460 c13 -48 84 -185 111 -215 29 -33 27 -28 -34 70 -17 28 -40
75 -52 105 -23 59 -37 81 -25 40z"/>
<path d="M552 3393 c-29 -42 -54 -94 -48 -101 3 -3 6 -1 6 4 0 6 15 36 34 67
36 60 41 76 8 30z"/>
<path d="M130 3185 c19 -20 61 -52 92 -71 32 -19 69 -49 84 -67 15 -19 21 -23
15 -10 -12 24 -46 53 -156 134 -63 46 -67 48 -35 14z"/>
<path d="M4012 3175 c-17 -36 -30 -65 -27 -65 7 0 67 121 63 126 -2 2 -18 -26
-36 -61z"/>
<path d="M3821 3324 c0 -11 3 -14 6 -6 3 7 2 16 -1 19 -3 4 -6 -2 -5 -13z"/>
<path d="M3832 3270 c0 -14 2 -19 5 -12 2 6 2 18 0 25 -3 6 -5 1 -5 -13z"/>
<path d="M3843 3195 c0 -22 2 -30 4 -17 2 12 2 30 0 40 -3 9 -5 -1 -4 -23z"/>
<path d="M3853 3090 c0 -25 2 -35 4 -22 2 12 2 32 0 45 -2 12 -4 2 -4 -23z"/>
<path d="M3670 2916 c0 -2 8 -10 18 -17 15 -13 16 -12 3 4 -13 16 -21 21 -21
13z"/>
<path d="M4231 3354 c0 -11 3 -14 6 -6 3 7 2 16 -1 19 -3 4 -6 -2 -5 -13z"/>
<path d="M4212 3293 c-15 -48 -8 -55 8 -8 7 20 10 38 8 41 -3 2 -10 -13 -16
-33z"/>
<path d="M255 2645 c66 -80 71 -86 49 -47 -10 18 -36 49 -58 70 -37 35 -37 34
9 -23z"/>
<path d="M4181 2390 c-33 -45 -46 -78 -37 -87 3 -4 6 1 6 10 0 8 16 37 36 62
19 26 33 49 30 52 -2 3 -18 -14 -35 -37z"/>
<path d="M3801 2204 c0 -11 3 -14 6 -6 3 7 2 16 -1 19 -3 4 -6 -2 -5 -13z"/>
<path d="M3811 2154 c0 -11 3 -14 6 -6 3 7 2 16 -1 19 -3 4 -6 -2 -5 -13z"/>
<path d="M3821 2104 c0 -11 3 -14 6 -6 3 7 2 16 -1 19 -3 4 -6 -2 -5 -13z"/>
<path d="M3831 2064 c0 -11 3 -14 6 -6 3 7 2 16 -1 19 -3 4 -6 -2 -5 -13z"/>
<path d="M343 2160 c0 -30 2 -43 4 -27 2 15 2 39 0 55 -2 15 -4 2 -4 -28z"/>
<path d="M4040 1860 c-8 -5 -10 -10 -5 -10 6 0 17 5 25 10 8 5 11 10 5 10 -5
0 -17 -5 -25 -10z"/>
<path d="M3560 1516 c0 -8 4 -17 9 -20 5 -4 7 3 4 14 -6 23 -13 26 -13 6z"/>
<path d="M461 1734 c0 -11 3 -14 6 -6 3 7 2 16 -1 19 -3 4 -6 -2 -5 -13z"/>
<path d="M583 1733 c-18 -7 -16 -23 2 -23 8 0 15 7 15 15 0 8 -1 15 -2 14 -2
0 -9 -3 -15 -6z"/>
<path d="M260 1527 c14 -9 43 -18 65 -21 l40 -6 -45 14 c-25 7 -54 17 -65 20
-12 5 -10 2 5 -7z"/>
<path d="M378 1493 c7 -3 16 -2 19 1 4 3 -2 6 -13 5 -11 0 -14 -3 -6 -6z"/>
<path d="M760 1344 c0 -6 7 -19 16 -30 14 -18 14 -18 3 6 -14 31 -19 36 -19
24z"/>
<path d="M867 1351 c15 -28 29 -48 31 -46 5 5 -47 95 -54 95 -3 0 7 -22 23
-49z"/>
<path d="M3648 1073 c7 -3 16 -2 19 1 4 3 -2 6 -13 5 -11 0 -14 -3 -6 -6z"/>
<path d="M3638 1033 c7 -3 16 -2 19 1 4 3 -2 6 -13 5 -11 0 -14 -3 -6 -6z"/>
<path d="M3433 813 c15 -2 37 -2 50 0 12 2 0 4 -28 4 -27 0 -38 -2 -22 -4z"/>
<path d="M3543 803 c15 -2 37 -2 50 0 12 2 0 4 -28 4 -27 0 -38 -2 -22 -4z"/>
<path d="M3663 803 c9 -2 23 -2 30 0 6 3 -1 5 -18 5 -16 0 -22 -2 -12 -5z"/>
<path d="M3270 739 c0 -5 9 -9 20 -9 11 0 20 2 20 4 0 2 -9 6 -20 9 -11 3 -20
1 -20 -4z"/>
<path d="M755 847 c-27 -6 -83 -10 -124 -10 -55 -1 -67 -3 -50 -10 14 -5 54
-5 94 -1 39 4 109 8 157 9 48 0 81 3 75 6 -24 13 -104 16 -152 6z"/>
<path d="M1234 952 c25 -48 96 -157 96 -146 0 10 -92 160 -106 172 -3 4 1 -8
10 -26z"/>
<path d="M3271 1044 c0 -11 3 -14 6 -6 3 7 2 16 -1 19 -3 4 -6 -2 -5 -13z"/>
<path d="M1228 483 c7 -3 16 -2 19 1 4 3 -2 6 -13 5 -11 0 -14 -3 -6 -6z"/>
<path d="M3463 623 c9 -2 23 -2 30 0 6 3 -1 5 -18 5 -16 0 -22 -2 -12 -5z"/>
<path d="M2517 409 c7 -7 15 -10 18 -7 3 3 -2 9 -12 12 -14 6 -15 5 -6 -5z"/>
<path d="M1885 490 c-10 -11 -13 -20 -8 -20 13 0 38 29 31 35 -3 3 -13 -4 -23
-15z"/>
<path d="M954 515 c-24 -18 -7 -19 26 0 16 9 19 14 9 15 -8 0 -24 -7 -35 -15z"/>
<path d="M2750 435 c0 -9 90 -65 131 -81 24 -9 64 -32 88 -50 26 -20 55 -34
70 -33 l26 1 -27 8 c-16 5 -45 21 -65 38 -21 16 -60 37 -86 47 -26 10 -68 31
-92 46 -25 16 -45 27 -45 24z"/>
<path d="M2120 390 c0 -5 5 -10 11 -10 5 0 7 5 4 10 -3 6 -8 10 -11 10 -2 0
-4 -4 -4 -10z"/>
<path d="M2176 334 c-4 -14 -5 -29 -2 -31 3 -3 8 7 12 21 3 15 4 29 1 32 -2 3
-8 -7 -11 -22z"/>
<path d="M1165 300 c-25 -11 1 -11 35 0 20 6 21 8 5 8 -11 0 -29 -3 -40 -8z"/>
<path d="M1655 4360 c-3 -5 -1 -10 4 -10 6 0 11 5 11 10 0 6 -2 10 -4 10 -3 0
-8 -4 -11 -10z"/>
<path d="M1771 4363 c0 -6 -4 -20 -7 -30 -5 -14 -4 -15 5 -7 7 7 11 20 8 30
-3 11 -5 14 -6 7z"/>
<path d="M1691 4344 c0 -11 3 -14 6 -6 3 7 2 16 -1 19 -3 4 -6 -2 -5 -13z"/>
<path d="M1725 4333 c-15 -12 -16 -14 -3 -10 9 3 19 1 22 -6 2 -7 5 -2 5 11 1
26 2 26 -24 5z"/>
<path d="M2541 4329 c0 -13 3 -19 5 -12 3 7 13 9 22 6 18 -7 17 -5 -10 16 -16
12 -18 11 -17 -10z"/>
<path d="M1888 4308 c-7 -16 7 -45 14 -32 3 5 2 18 -2 28 -5 16 -8 17 -12 4z"/>
<path d="M4096 3077 c3 -10 9 -15 12 -12 3 3 0 11 -7 18 -10 9 -11 8 -5 -6z"/>
<path d="M3770 2675 c-15 -9 -19 -14 -10 -15 13 0 13 -1 0 -10 -24 -15 2 -11
30 5 14 8 19 14 12 15 -7 0 -10 5 -7 10 8 13 5 12 -25 -5z"/>
<path d="M4139 2603 c-10 -36 -30 -66 -81 -120 -37 -40 -68 -74 -68 -77 0 -3
31 27 70 67 48 50 74 86 86 120 9 27 14 50 11 53 -2 2 -10 -17 -18 -43z"/>
<path d="M3764 2625 c-17 -13 -16 -14 14 -4 33 11 41 19 19 19 -7 0 -22 -7
-33 -15z"/>
<path d="M3760 2600 c-8 -5 -10 -10 -5 -10 6 0 17 5 25 10 8 5 11 10 5 10 -5
0 -17 -5 -25 -10z"/>
<path d="M80 2368 c8 -8 33 -25 55 -37 34 -19 36 -20 16 -3 -34 27 -91 60 -71
40z"/>
<path d="M4040 2247 c0 -2 15 -16 33 -33 l32 -29 -29 33 c-28 30 -36 37 -36
29z"/>
<path d="M4040 1554 c-56 -56 -135 -118 -186 -145 -24 -12 -29 -17 -14 -13 61
15 183 108 231 175 29 41 20 36 -31 -17z"/>
<path d="M3005 955 c-11 -19 -17 -36 -14 -39 2 -2 14 13 26 35 12 21 18 39 14
39 -4 0 -16 -16 -26 -35z"/>
<path d="M2962 845 c-21 -55 -66 -128 -106 -174 l-21 -24 23 12 c13 7 36 33
52 57 30 48 84 174 77 180 -2 3 -14 -21 -25 -51z"/>
<path d="M1435 828 c4 -24 14 -56 21 -73 8 -16 13 -23 10 -15 -2 9 -9 41 -16
73 -13 66 -25 78 -15 15z"/>
</g>
</svg>
